<?xml version="1.0" encoding="UTF-8" standalone="no"?><!DOCTYPE svg PUBLIC "-//W3C//DTD SVG 1.1//EN" "http://www.w3.org/Graphics/SVG/1.1/DTD/svg11.dtd"><svg width="100%" height="100%" viewBox="0 0 813 174" version="1.1" xmlns="http://www.w3.org/2000/svg" xmlns:xlink="http://www.w3.org/1999/xlink" xml:space="preserve" xmlns:serif="http://www.serif.com/" style="fill-rule:evenodd;clip-rule:evenodd;stroke-linejoin:round;stroke-miterlimit:2;"><rect id="Artboard1" x="0" y="0" width="813" height="174" style="fill:none;"/><g><g><path d="M713.339,154.757l0,-137.31l29.466,0l0,114.546l59.55,0l0,22.764l-89.016,0Z" style="fill:#e5e5e5;"/><path d="M240.206,154.968l5.412,-22.842l54.072,0l0,-114.678l29.526,0l0,137.52l-89.01,0Z" style="fill:#e5e5e5;"/><rect x="514.885" y="129.932" width="28.212" height="24.828" style="fill:#e5e5e5;"/><path d="M696.019,102.861l-18.834,-58.548l-0.342,0l-20.19,58.548l39.366,0Zm-85.374,51.894l49.656,-137.304l34.956,0l47.754,137.304l-29.682,0l-9.906,-29.076l-54.336,0l-10.302,29.076l-28.14,0Z" style="fill:#e5e5e5;"/><rect x="344.293" y="129.932" width="28.212" height="24.828" style="fill:#e5e5e5;"/><path d="M199.343,21.808l3.588,97.296c0,36.462 -20.598,39.54 -53.868,39.54c-33.3,0 -57.906,-17.268 -57.906,-53.79l0.114,-84.258l26.616,32.76l0.33,40.002c0.828,22.866 1.908,43.974 30.846,43.974c28.902,0 30.042,-21.108 30.042,-44.298l0.174,-71.778l20.064,0.552Z" style="fill:#e5e5e5;"/><path d="M91.156,57.656c-1.128,-13.884 -9.348,-21.006 -23.586,-21.006c-10.866,0 -21.882,5.7 -21.882,17.694c0,14.826 13.278,16.554 25.098,19.404c20.892,5.286 47.508,12.624 47.508,40.194c0,34.032 -25.428,44.412 -54.954,44.412c-31.35,0 -53.58,-12.186 -52.668,-46.782l30.06,0c-1.122,15.21 7.608,25.47 23.046,25.47c11.796,0 27.354,-3.594 27.354,-18.228c0,-16.152 -19.602,-17.316 -31.356,-20.364c-19.236,-4.758 -45.48,-13.464 -45.48,-37.824c0,-31.398 28.914,-45.27 57.078,-45.27c26.616,0 46.656,13.932 46.656,41.556l-26.874,0.744Z" style="fill:#e5e5e5;"/><path d="M229.244,134.138c13.86,0 23.364,-2.448 23.364,-18.264c0,-15.786 -9.504,-18.252 -23.364,-18.252l-23.016,0l0,36.516l23.016,0Zm0,-59.37c12.354,0 19.182,-5.082 19.182,-16.116c0,-11.046 -6.828,-16.182 -19.182,-16.182l-23.016,0l0,32.298l23.016,0Zm-52.494,82.206l0,-137.346l51.546,-0c24.516,-1.494 49.626,8.748 49.626,35.556c0,15.042 -10.446,25.494 -24.168,30.078l0,0.366c17.322,3.624 30.24,15.582 30.24,35.772c0,27.198 -34.224,37.08 -55.356,35.574l-51.888,0Z" style="fill:#e5e5e5;"/><path d="M433.408,154.757l-24.54,0l-36.36,-117.87l-0.348,0.372l0,68.706l-27.576,0l0,-88.518l48.318,0l28.722,99.876l0.354,0l31.2,-99.876l46.602,0l0,137.31l-27.552,0l0,-117.498l-0.444,-0.372l-38.376,117.87Z" style="fill:#e5e5e5;"/><path d="M597.095,154.757l-54.192,-114.09l-0.384,0.384l0,63.948l-27.546,0l0,-87.552l43.692,0l52.332,108.036l0.366,-0.378l0,-107.658l27.564,0l0,137.31l-41.832,0Z" style="fill:#e5e5e5;"/></g></g></svg>