<?xml version="1.0" encoding="UTF-8" standalone="no"?><!DOCTYPE svg PUBLIC "-//W3C//DTD SVG 1.1//EN" "http://www.w3.org/Graphics/SVG/1.1/DTD/svg11.dtd"><svg width="100%" height="100%" viewBox="0 0 3388 725" version="1.1" xmlns="http://www.w3.org/2000/svg" xmlns:xlink="http://www.w3.org/1999/xlink" xml:space="preserve" xmlns:serif="http://www.serif.com/" style="fill-rule:evenodd;clip-rule:evenodd;stroke-linejoin:round;stroke-miterlimit:2;"><rect id="Artboard1" x="0" y="0" width="3387.5" height="725" style="fill:none;"/><g><g><path d="M2972.246,644.821l0,-572.125l122.775,0l0,477.275l248.125,0l0,94.85l-370.9,0Z" style="fill:#111;"/><path d="M1000.858,645.7l22.55,-95.175l225.3,0l0,-477.825l123.025,-0l0,573l-370.875,0Z" style="fill:#111;"/><rect x="2145.354" y="541.383" width="117.55" height="103.45" style="fill:#111;"/><path d="M2900.079,428.588l-78.475,-243.95l-1.425,0l-84.125,243.95l164.025,0Zm-355.725,216.225l206.9,-572.1l145.65,0l198.975,572.1l-123.675,0l-41.275,-121.15l-226.4,0l-42.925,121.15l-117.25,0Z" style="fill:#111;"/><rect x="1434.554" y="541.383" width="117.55" height="103.45" style="fill:#111;"/><path d="M830.596,90.867l14.95,405.4c0,151.925 -85.825,164.75 -224.45,164.75c-138.75,0 -241.275,-71.95 -241.275,-224.125l0.475,-351.075l110.9,136.5l1.375,166.675c3.45,95.275 7.95,183.225 128.525,183.225c120.425,0 125.175,-87.95 125.175,-184.575l0.725,-299.075l83.6,2.3Z" style="fill:#111;"/><path d="M379.817,240.233c-4.7,-57.85 -38.95,-87.525 -98.275,-87.525c-45.275,0 -91.175,23.75 -91.175,73.725c0,61.775 55.325,68.975 104.575,80.85c87.05,22.025 197.95,52.6 197.95,167.475c0,141.8 -105.95,185.05 -228.975,185.05c-130.625,0 -223.25,-50.775 -219.45,-194.925l125.25,0c-4.675,63.375 31.7,106.125 96.025,106.125c49.15,0 113.975,-14.975 113.975,-75.95c0,-67.3 -81.675,-72.15 -130.65,-84.85c-80.15,-19.825 -189.5,-56.1 -189.5,-157.6c0,-130.825 120.475,-188.625 237.825,-188.625c110.9,0 194.4,58.05 194.4,173.15l-111.975,3.1Z" style="fill:#111;"/><path d="M955.183,558.908c57.75,0 97.35,-10.2 97.35,-76.1c0,-65.775 -39.6,-76.05 -97.35,-76.05l-95.9,0l0,152.15l95.9,0Zm0,-247.375c51.475,0 79.925,-21.175 79.925,-67.15c0,-46.025 -28.45,-67.425 -79.925,-67.425l-95.9,0l0,134.575l95.9,0Zm-218.725,342.525l0,-572.275l214.775,-0c102.15,-6.225 206.775,36.45 206.775,148.15c0,62.675 -43.525,106.225 -100.7,125.325l0,1.525c72.175,15.1 126,64.925 126,149.05c0,113.325 -142.6,154.5 -230.65,148.225l-216.2,0Z" style="fill:#111;"/><path d="M1805.867,644.821l-102.25,0l-151.5,-491.125l-1.45,1.55l0,286.275l-114.9,0l0,-368.825l201.325,0l119.675,416.15l1.475,0l130,-416.15l194.175,0l0,572.125l-114.8,0l0,-489.575l-1.85,-1.55l-159.9,491.125Z" style="fill:#111;"/><path d="M2487.896,644.821l-225.8,-475.375l-1.6,1.6l0,266.45l-114.775,0l0,-364.8l182.05,0l218.05,450.15l1.525,-1.575l0,-448.575l114.85,-0l0,572.125l-174.3,0Z" style="fill:#111;"/></g></g></svg>