<?xml version="1.0" encoding="UTF-8" standalone="no"?><!DOCTYPE svg PUBLIC "-//W3C//DTD SVG 1.1//EN" "http://www.w3.org/Graphics/SVG/1.1/DTD/svg11.dtd"><svg width="100%" height="100%" viewBox="0 0 5760 3915" version="1.1" xmlns="http://www.w3.org/2000/svg" xmlns:xlink="http://www.w3.org/1999/xlink" xml:space="preserve" xmlns:serif="http://www.serif.com/" style="fill-rule:evenodd;clip-rule:evenodd;stroke-linejoin:round;stroke-miterlimit:2;"><path d="M3994.001,2420.521c-92.743,138.382 -249.717,229.527 -427.402,229.527c-178.457,0 -336.029,-91.955 -428.608,-231.371c-92.463,140.147 -250.467,232.676 -429.496,232.676c-179.202,0 -337.345,-92.725 -429.765,-233.12c-95.813,144.346 -261.935,237.804 -448.83,230.65c-278.536,-10.663 -494.903,-250.367 -494.903,-531.576l0,-853.66c96.012,0 173.844,78.523 173.844,175.386l0,681.123c0,184.942 140.65,344.156 323.744,353.291c195.928,9.774 358.44,-147.074 358.44,-341.211c0,-188.821 -153.107,-342.429 -341.309,-342.429l-220.063,0c-17.044,0 -30.862,-13.941 -30.862,-31.136l0,-113.117c0,-17.195 13.818,-31.134 30.862,-31.134l220.063,0c178.44,0 335.986,91.673 428.47,230.623c92.342,-140.853 250.755,-233.943 430.309,-233.943c178.473,0 336.051,91.955 428.632,231.365c92.46,-140.141 250.459,-232.67 429.472,-232.67c177.685,0 334.66,91.145 427.402,229.522c84.479,-130.004 226.241,-218.319 397.542,-228.529c18.032,-1.075 33.46,12.851 33.46,31.073l0,113.457c0,16.023 -12.06,29.713 -27.9,30.895c-184.032,13.725 -313.797,162.626 -313.797,343.697c0,181.069 129.765,329.994 313.797,343.72c15.84,1.183 27.9,14.873 27.9,30.898l0,113.455c0,18.223 -15.428,32.151 -33.46,31.076c-171.302,-10.213 -313.063,-98.528 -397.542,-228.537Zm-427.402,-635.34c-188.42,0 -341.699,154.638 -341.699,344.729c0,190.091 153.279,344.752 341.699,344.752c188.42,0 341.724,-154.66 341.724,-344.752c0,-190.091 -153.303,-344.729 -341.724,-344.729Zm-858.104,1.305c-188.42,0 -341.699,154.635 -341.699,344.729c0,190.091 153.279,344.752 341.699,344.752c188.42,0 341.724,-154.66 341.724,-344.752c0,-190.094 -153.304,-344.729 -341.724,-344.729Z" style="fill:#111;"/></svg>