<?xml version="1.0" encoding="UTF-8" standalone="no"?><!DOCTYPE svg PUBLIC "-//W3C//DTD SVG 1.1//EN" "http://www.w3.org/Graphics/SVG/1.1/DTD/svg11.dtd"><svg width="100%" height="100%" viewBox="0 0 5760 3915" version="1.1" xmlns="http://www.w3.org/2000/svg" xmlns:xlink="http://www.w3.org/1999/xlink" xml:space="preserve" xmlns:serif="http://www.serif.com/" style="fill-rule:evenodd;clip-rule:evenodd;stroke-linejoin:round;stroke-miterlimit:2;"><g id="eye-love" serif:id="eye love"><g><g id="Eye-Love-Skateboarding" serif:id="Eye Love Skateboarding"><path d="M3649.657,1041.533l-1538.925,0l-275.537,-175.256c-30.565,-19.434 -39.594,-59.996 -20.139,-90.561c19.441,-30.586 59.996,-39.614 90.582,-20.16l243.284,154.743l1462.498,0l242.917,-154.722c30.565,-19.503 71.107,-10.447 90.589,20.098c19.475,30.545 10.461,71.128 -20.105,90.589l-275.164,175.269Z" style="fill:#111;fill-rule:nonzero;"/><path d="M3111.64,1885.856c154.044,81.291 259.576,243.049 259.576,429.083c0,129.629 -50.58,251.613 -142.165,343.24c-36.84,36.778 -78.516,66.555 -123.755,89.475c112.133,-23.515 218.931,-64.465 317.206,-120.615c99.825,-99.88 198.439,-198.494 282.622,-282.649c16.272,-16.272 31.485,-33.167 45.744,-50.552c-159.544,-209.937 -385.802,-353.362 -639.228,-407.982" style="fill:#111;fill-rule:nonzero;"/><path d="M2880.105,1760.717c364.597,0 704.662,165.445 930.788,446.849c54.039,-92.616 82.916,-195.222 82.764,-299.904c-0.208,-151.671 -60.639,-295.206 -170.143,-404.135c-109.448,-108.867 -254.706,-168.801 -409.034,-168.801c-155.511,0 -301.564,60.702 -411.241,170.98l-23.266,23.391l-23.253,-23.412c-109.656,-110.258 -255.716,-170.959 -411.227,-170.959c-154.321,0 -299.585,59.934 -409.027,168.801c-109.511,108.929 -169.935,252.43 -170.15,404.115c-0.152,104.723 28.725,207.378 82.792,300.014c226.355,-281.473 566.44,-446.939 930.995,-446.939" style="fill:#111;fill-rule:nonzero;"/><path d="M2781.174,2134.694c54.655,0 98.995,44.36 98.995,99.057c0,54.731 -44.34,99.002 -98.995,99.002c-54.703,0 -98.96,-44.271 -98.981,-99.002c0,-54.696 44.277,-99.057 98.981,-99.057m103.927,480.853c79.948,0 155.199,-31.181 211.881,-87.697c56.564,-56.668 87.725,-131.912 87.725,-211.951c0,-80.031 -31.16,-155.172 -87.725,-211.902c-56.682,-56.578 -131.933,-87.655 -211.881,-87.655c-80.073,0 -155.324,31.077 -211.916,87.655c-56.419,56.73 -87.642,131.891 -87.642,211.902c0,165.169 134.306,299.648 299.558,299.648" style="fill:#111;fill-rule:nonzero;"/><path d="M2542.802,2658.177c-91.737,-91.627 -142.269,-213.611 -142.269,-343.233c0,-129.567 50.532,-251.489 142.269,-343.136c36.674,-36.591 78.413,-66.492 123.479,-89.24c-260.58,51.708 -493.742,196.523 -657.139,411.358c14.273,17.358 29.458,34.239 45.696,50.469c84.155,84.134 182.748,182.727 282.559,282.552c103.976,59.401 217.582,101.568 336.744,124.316c-47.993,-23.322 -92.395,-54.295 -131.338,-93.086" style="fill:#111;fill-rule:nonzero;"/><path d="M2529.175,2818.779c153.892,153.913 289.007,289.097 350.802,350.933l185.467,-185.509c50.296,-50.296 106.466,-106.515 165.314,-165.355c-112.112,34.377 -229.994,52.801 -350.65,52.801c-120.746,0 -238.732,-18.437 -350.933,-52.87" style="fill:#111;fill-rule:nonzero;"/><path d="M2459.335,1212.682c0,-63.476 -50.878,-114.803 -114.056,-114.803c-62.929,0 -113.745,51.41 -113.745,114.803c0,31.997 12.896,60.999 33.727,81.934c57.457,-16.618 117.557,-25.377 178.992,-25.48c9.333,-16.77 15.082,-35.823 15.082,-56.454" style="fill:#111;fill-rule:nonzero;"/><path d="M3528.802,1209.266c0,-63.732 -51.168,-115.557 -114.395,-115.557c-62.604,0 -113.399,51.825 -113.399,115.557c0,22.021 6.275,42.375 16.576,59.913c60.017,0.277 118.733,8.8 174.972,24.837c22.194,-21.225 36.245,-51.196 36.245,-84.75" style="fill:#111;fill-rule:nonzero;"/></g></g></g></svg>