<?xml version="1.0" encoding="UTF-8" standalone="no"?><!DOCTYPE svg PUBLIC "-//W3C//DTD SVG 1.1//EN" "http://www.w3.org/Graphics/SVG/1.1/DTD/svg11.dtd"><svg width="100%" height="100%" viewBox="0 0 5760 3915" version="1.1" xmlns="http://www.w3.org/2000/svg" xmlns:xlink="http://www.w3.org/1999/xlink" xml:space="preserve" xmlns:serif="http://www.serif.com/" style="fill-rule:evenodd;clip-rule:evenodd;stroke-linejoin:round;stroke-miterlimit:2;"><g id="Illuminara"><rect x="2783.664" y="1636.857" width="0.016" height="0.016" style="fill:#111;"/><rect x="2783.664" y="1636.857" width="0.016" height="0.016" style="fill:#111;"/><rect x="2783.664" y="1636.857" width="0.016" height="0.016" style="fill:#111;"/><rect x="2783.664" y="1636.857" width="0.016" height="0.016" style="fill:#111;"/><rect x="2783.664" y="1165.266" width="0.016" height="0.016" style="fill:#111;"/><path d="M3019.493,1682.397c-36.065,-20.054 -74.565,-35.381 -114.498,-45.519c39.933,-10.313 78.433,-25.608 114.498,-45.599c36.145,19.99 74.597,35.285 114.466,45.599c-39.869,10.138 -78.322,25.465 -114.466,45.519m-171.667,159.396c-29.651,-58.729 -46.156,-123.522 -48.384,-189.286c65.987,2.228 130.732,18.701 189.557,48.543c-56.151,36.574 -104.232,84.688 -141.173,140.743m-64.204,145.231c-10.043,-39.742 -25.449,-78.306 -45.344,-114.307c19.895,-36.145 35.301,-74.788 45.344,-114.562c10.25,39.774 25.704,78.417 45.758,114.562c-20.054,36.001 -35.508,74.565 -45.758,114.307m-205.043,-285.975c58.634,-29.842 123.522,-46.315 189.429,-48.543c-2.165,65.764 -18.733,130.7 -48.464,189.509c-36.654,-56.278 -84.688,-104.392 -140.966,-140.966m-145.04,-64.172c39.789,-10.313 78.29,-25.608 114.418,-45.599c36.065,19.99 74.581,35.285 114.403,45.599c-39.821,10.138 -78.337,25.465 -114.403,45.519c-36.129,-20.054 -74.597,-35.381 -114.418,-45.519m286.006,-205.17c29.619,58.634 46.299,123.427 48.464,189.334c-65.907,-2.228 -130.509,-18.733 -189.35,-48.32c56.199,-36.925 104.232,-84.847 140.886,-141.014m64.268,-145.136c10.059,39.885 25.513,78.433 45.567,114.466c-20.054,36.145 -35.508,74.629 -45.758,114.339c-10.043,-39.71 -25.449,-78.194 -45.344,-114.339c19.895,-36.161 35.301,-74.581 45.535,-114.466m205.186,286.15c-58.825,29.587 -123.57,46.092 -189.557,48.32c2.228,-65.764 18.733,-130.477 48.384,-189.207c36.941,56.039 84.863,104.073 141.173,140.886m281.645,53c-1.751,-81.6 -24.319,-161.8 -65.191,-232.418l-26.611,15.422c37.338,64.729 58.315,137.783 60.83,212.316c-74.725,-2.499 -147.81,-23.333 -212.412,-60.766c-69.234,-40.14 -126.992,-97.898 -166.861,-166.972c-37.625,-64.57 -58.411,-137.719 -60.957,-212.396c74.629,2.658 147.858,23.524 212.428,61.069l15.391,-26.866c-73.228,-42.416 -156.77,-64.889 -243.448,-65.239l-1.464,0c-85.006,0.35 -168.787,22.823 -242.063,65.239l15.327,26.866c64.554,-37.545 137.671,-58.411 212.396,-61.069c-2.467,74.565 -23.333,147.603 -60.878,212.396c-40.028,69.25 -97.786,126.992 -166.845,166.877c-64.65,37.529 -137.862,58.363 -212.46,60.862c2.483,-74.534 23.46,-147.587 60.798,-212.316l-26.548,-15.422c-42.766,73.849 -65.223,158.091 -65.223,243.575l0,15.295l0.271,0c2.371,80.088 24.733,158.696 64.952,228.121l26.548,-15.406c-37.338,-64.554 -58.315,-137.815 -60.591,-212.38c74.47,2.547 147.603,23.412 212.253,60.862c69.186,40.076 126.817,97.818 166.845,166.925c37.545,64.793 58.411,137.799 60.878,212.428c-74.549,-2.499 -147.635,-23.333 -212.396,-60.862l-15.327,26.643c73.833,42.734 157.964,65.318 243.336,65.318c85.452,0 169.805,-22.584 243.639,-65.318l-15.391,-26.643c-64.57,37.338 -137.799,58.363 -212.428,60.862c2.547,-74.629 23.555,-147.81 60.957,-212.428c39.869,-69.106 97.627,-126.849 166.861,-166.925c64.602,-37.45 137.687,-58.315 212.412,-60.862c-2.515,74.565 -23.38,147.682 -60.83,212.38l26.611,15.406c42.702,-73.865 65.366,-157.996 65.366,-243.416c0,-3.708 0,-7.48 -0.175,-11.157" style="fill:#111;fill-rule:nonzero;"/><rect x="3255.323" y="1636.857" width="0.016" height="0.016" style="fill:#111;"/><path d="M2461.71,1282.172c17.969,0 32.659,14.595 32.659,32.643c0,17.969 -14.69,32.627 -32.659,32.627c-18.096,0 -32.627,-14.658 -32.659,-32.627c0,-18.048 14.563,-32.707 32.659,-32.643" style="fill:#111;fill-rule:nonzero;"/><path d="M3105.787,1926.287c18.096,0 32.595,14.547 32.595,32.723c0,17.953 -14.499,32.5 -32.595,32.5c-18.001,0 -32.611,-14.658 -32.611,-32.5c0,-18.176 14.563,-32.739 32.611,-32.723" style="fill:#111;fill-rule:nonzero;"/><path d="M2461.586,1926.263c17.969,0 32.707,14.579 32.707,32.58c0,18.017 -14.738,32.643 -32.707,32.643c-17.969,0 -32.659,-14.627 -32.659,-32.643c0,-18.033 14.643,-32.58 32.659,-32.58" style="fill:#111;fill-rule:nonzero;"/><path d="M3105.787,1282.071c18.064,0.032 32.595,14.643 32.595,32.643c0,18.08 -14.531,32.643 -32.595,32.643c-18.048,0 -32.611,-14.563 -32.611,-32.643c0,-18.001 14.563,-32.611 32.611,-32.643" style="fill:#111;fill-rule:nonzero;"/><path d="M947.102,2271.732l0,473.828c0,10.6 -8.77,19.163 -19.608,19.163c-10.282,0 -18.972,-8.674 -18.972,-19.163l0,-473.828c0,-10.234 8.69,-19.019 18.972,-19.019c10.839,0 19.608,8.483 19.608,19.019" style="fill:#111;fill-rule:nonzero;"/><path d="M1455.614,2745.567c0,10.6 -8.722,19.147 -19.767,19.147l-261.687,0c-10.313,0 -18.924,-8.674 -18.924,-19.147l0,-473.828c0,-10.234 8.61,-19.035 18.924,-19.035c10.807,0 19.831,8.483 19.831,19.035l0,454.268l241.856,0c11.157,0 19.767,8.563 19.767,19.56" style="fill:#111;fill-rule:nonzero;"/><path d="M1949.391,2271.732l0,285.736c0,114.323 -93.282,207.255 -208.003,207.255c-114.068,0 -206.571,-92.932 -206.571,-207.255l0,-285.736c0,-10.234 8.642,-19.019 18.94,-19.019c10.807,0 19.736,8.483 19.736,19.019l0,285.736c0,92.152 75.313,167.768 167.895,168.532c93.219,-0.764 169.153,-76.38 169.153,-168.532l0,-285.736c0,-10.234 8.754,-19.019 19.051,-19.019c10.87,0 19.799,8.483 19.799,19.019" style="fill:#111;fill-rule:nonzero;"/><path d="M2556.086,2274.592l0,470.979c0,10.473 -8.642,19.147 -18.924,19.147c-10.727,0 -19.147,-8.34 -19.147,-19.147l0,-413.81l-159.969,222.28c-3.438,5.332 -9.199,8.626 -15.773,8.626l-1.512,0c-7.417,0 -12.733,-2.897 -16.489,-8.817l-160.065,-221.325l0,413.046c0,10.473 -8.642,19.147 -18.94,19.147c-10.839,0 -19.767,-8.547 -19.767,-19.147l0,-470.979c0,-5.921 2.849,-11.3 7.608,-14.722c0.318,-0.637 0.684,-1.035 1.082,-1.178c0.239,-0.191 0.398,-0.191 0.557,-0.334c9.406,-6.096 21.12,-3.74 27.089,4.504l179.641,249.018l179.132,-249.018c3.183,-5.125 8.865,-8.006 15.709,-8.006c3.963,0 7.799,1.178 11.125,3.231l0.43,0.414c2.085,2.133 3.565,3.613 5.061,5.841c2.228,4.329 3.151,7.735 3.151,10.25" style="fill:#111;fill-rule:nonzero;"/><path d="M2802.75,2271.732l0,473.828c0,10.6 -8.945,19.163 -19.847,19.163c-10.329,0 -18.86,-8.674 -18.86,-19.163l0,-473.828c0,-10.234 8.531,-19.019 18.86,-19.019c10.902,0 19.847,8.483 19.847,19.019" style="fill:#111;fill-rule:nonzero;"/><path d="M3354.548,2757.536l-305.662,-423.535l0,411.566c0,10.473 -8.563,19.147 -18.908,19.147c-10.313,0 -18.844,-8.674 -18.844,-19.147l0,-466.38c-2.435,-8.006 0.127,-15.597 6.923,-20.993c3.517,-2.165 7.528,-3.342 11.364,-3.342c6.653,0 12.526,2.897 15.613,8.006l305.503,423.471l0,-409.545c0,-10.202 8.61,-19.035 19.051,-19.035c10.855,0 19.624,8.531 19.624,19.035l0,468.783c0,10.6 -8.77,19.147 -19.624,19.147c-6.08,0 -11.157,-2.26 -15.04,-7.178" style="fill:#111;fill-rule:nonzero;"/><path d="M4207.705,2507.903l-127.151,0l0,-216.502l124.175,0c59.684,0 108.195,48.591 108.195,108.243c0,58.22 -47.334,106.747 -105.219,108.259m149.338,210.056l-1.241,0c-1.178,-1.257 -3.963,-4.154 -6.334,-11.348c-4.361,-12.796 -6.557,-32.484 -6.557,-58.347c0,-68.374 -48.225,-103.023 -69.138,-114.816c-1.035,-0.414 -1.989,-0.828 -2.944,-1.337c-0.557,-0.239 -1.194,-0.477 -1.655,-0.684c49.753,-24.717 81.743,-76.125 81.743,-131.783c0,-80.948 -65.525,-146.934 -146.186,-146.934l-145.47,0c-9.534,0.78 -17.46,9.534 -17.46,19.019l0,473.844c0,10.473 8.722,19.147 18.94,19.147c10.886,0 19.815,-8.547 19.815,-19.147l0,-199.791c10.107,0 20.118,0.095 30.208,0c18.86,-0.016 37.625,0.095 56.437,-0.016c5.602,-0.08 11.252,-0.08 16.855,0c10.568,0.111 20.579,-0.286 30.893,2.276c19.369,4.886 39.439,15.693 54.718,28.298c13.847,11.348 25.815,25.656 30.94,43.004c2.753,9.056 4.472,19.401 4.472,28.919c0,39.853 4.329,65.764 13.847,84.242c6,12.144 19.067,23.746 33.184,24.272c7.194,0.255 14.42,-0.493 19.497,-6.096c4.281,-4.6 7.114,-13.958 4.807,-20.133c-2.881,-7.56 -10.568,-12.589 -19.369,-12.589" style="fill:#111;fill-rule:nonzero;"/><path d="M4554.2,2594.353l101.017,-267.321l100.413,267.321l-201.43,0Zm296.017,144.245l-176.792,-471.759c-2.387,-6.971 -10.138,-11.889 -18.876,-11.889c-8.053,0 -15.82,4.807 -18.908,11.889c0,0 -176.426,471.361 -176.554,471.759c-4.791,12.637 5.65,26.532 17.889,26.532c0.684,0 1.448,0 2.165,-0.191c6.86,-0.716 13.083,-5.125 15.852,-12c0.127,-0.286 0.255,-0.621 0.414,-0.955l44.66,-118.923l229.665,0l44.851,118.923c1.607,4.313 4.902,8.228 9.104,10.313c9.804,5.204 22.171,1.162 26.293,-9.12c1.958,-4.727 1.958,-10.075 0.239,-14.579" style="fill:#111;fill-rule:nonzero;"/><path d="M3616.91,2594.353l101.097,-267.321l100.333,267.321l-201.43,0Zm295.986,144.245l-176.761,-471.759c-2.308,-6.971 -10.091,-11.889 -18.892,-11.889c-8.006,0 -15.804,4.807 -18.94,11.889c0,0 -176.379,471.361 -176.506,471.759c-4.791,12.637 5.618,26.532 17.826,26.532c0.796,0 1.544,0 2.228,-0.191c6.892,-0.716 13.178,-5.125 15.804,-12c0.175,-0.286 0.286,-0.621 0.462,-0.955l44.66,-118.923l229.696,0l44.867,118.923c1.56,4.313 4.838,8.228 9.008,10.313c9.852,5.204 22.218,1.162 26.42,-9.12c1.926,-4.727 1.926,-10.075 0.127,-14.579" style="fill:#111;fill-rule:nonzero;"/></g></svg>