<?xml version="1.0" encoding="UTF-8" standalone="no"?><!DOCTYPE svg PUBLIC "-//W3C//DTD SVG 1.1//EN" "http://www.w3.org/Graphics/SVG/1.1/DTD/svg11.dtd"><svg width="100%" height="100%" viewBox="0 0 5760 3915" version="1.1" xmlns="http://www.w3.org/2000/svg" xmlns:xlink="http://www.w3.org/1999/xlink" xml:space="preserve" xmlns:serif="http://www.serif.com/" style="fill-rule:evenodd;clip-rule:evenodd;stroke-linejoin:round;stroke-miterlimit:2;"><g id="Maven"><path d="M2185.813,2737.003c-0.682,-2.913 -1.795,-10.949 -3.333,-24.129c-1.369,-10.954 -2.569,-20.026 -3.59,-27.211c-1.544,8.559 -3.723,17.113 -6.549,25.667c-2.821,8.564 -6.38,17.287 -10.657,26.185l-98.309,200.224l-98.32,-204.332c-4.108,-8.385 -7.662,-16.513 -10.651,-24.385c-3,-7.867 -5.605,-15.662 -7.831,-23.359c-0.174,7.872 -0.815,16.128 -1.923,24.77c-1.118,8.641 -2.785,17.672 -5.005,27.083l-40.298,185.075l-56.222,0l88.817,-391.72l110.889,237.194c1.713,3.759 4.328,10.01 7.831,18.734c3.513,8.728 7.744,19.508 12.713,32.344c3.595,-10.78 9.241,-24.467 16.939,-41.067c2.056,-4.446 3.59,-7.872 4.621,-10.272l108.325,-236.932l90.873,391.72l-56.729,0l-41.59,-185.588Z" style="fill:#111;fill-rule:nonzero;"/><path d="M2511.482,2774.995l104.73,0l-38.503,-85.745c-2.231,-5.467 -4.539,-11.759 -6.933,-18.862c-2.4,-7.098 -4.795,-15.016 -7.185,-23.744c-2.056,8.21 -4.241,15.872 -6.549,22.975c-2.308,7.103 -4.662,13.646 -7.062,19.631l-38.498,85.745Zm168.906,147.597l-42.611,-96.776l-148.885,0l-43.642,96.776l-64.17,0l181.998,-390.694l181.737,390.694l-64.427,0Z" style="fill:#111;fill-rule:nonzero;"/><path d="M2939.567,2937.222l-167.623,-390.438l63.401,0l84.196,200.229c4.959,11.641 9.072,22.375 12.318,32.211c3.251,9.841 5.821,19.216 7.708,28.108c2.221,-9.41 5.041,-19.164 8.467,-29.257c3.421,-10.103 7.451,-20.452 12.067,-31.062l83.94,-200.229l63.15,0l-167.623,390.438Z" style="fill:#111;fill-rule:nonzero;"/><path d="M3221.773,2922.593l0,-375.807l209.727,0l0,51.857l-148.639,0l0,94.202l148.639,0l0,53.652l-148.639,0l0,121.423l148.639,0l0,54.673l-209.727,0Z" style="fill:#111;fill-rule:nonzero;"/><path d="M3580.854,2922.593l0,-390.699l238.732,229.748c6.503,6.508 13.087,13.436 19.764,20.79c6.677,7.359 13.687,15.662 21.052,24.898l0,-260.543l56.473,0l0,390.438l-243.609,-233.85c-6.508,-6.328 -12.8,-13.005 -18.867,-20.021c-6.077,-7.021 -11.851,-14.375 -17.323,-22.082l0,261.323l-56.222,0Z" style="fill:#111;fill-rule:nonzero;"/><path d="M3514.602,1174.143l-599.031,-344.816l0,-71.329l599.031,345.857l0,70.288Zm0,159.177l-599.031,-339.934l0,-81.971l599.031,344.816l0,77.089Zm0,151.198l-250.727,-150.71c9.785,30.006 16.087,61.545 18.554,94.15l232.173,139.567l0,68.899l-233.286,-134.29c-2.723,25.257 -7.795,49.811 -14.975,73.468l248.261,142.91l0,69.74l-270.4,-155.649c-10.318,21.518 -22.564,41.929 -36.385,61.14l277.548,159.772l-64.75,37.38l-255.317,-146.972c-17.908,17.903 -37.508,34.113 -58.504,48.416l242.625,139.664l-60.709,35.052l-243.62,-140.233c-29.195,13.144 -60.211,22.898 -92.576,28.795l264.994,152.541l-60.355,34.847l-241.584,-139.059l0,-43.339c-11.734,1.031 -23.575,1.662 -35.575,1.662c-11.99,0 -23.841,-0.631 -35.575,-1.662l0,321.883l-66.324,-38.293l0,-294.985c-24.718,-6.451 -48.503,-15.205 -71.145,-25.995l0,279.897l-60.437,-34.893l0,-280.636c-26.211,-18.652 -50.093,-40.339 -71.15,-64.565l0,304.128l-60.437,-34.898l0,-361.555c-24.734,-52.247 -38.631,-110.592 -38.631,-172.131c0,-61.545 13.898,-119.879 38.631,-172.131l0,-338.196l60.437,-34.893l0,280.769c21.057,-24.226 44.939,-45.914 71.15,-64.565l0,-257.281l60.437,-34.893l0,256.538c22.641,-10.79 46.426,-19.539 71.145,-25.99l0,-271.63l66.324,-38.293l0,298.523c11.734,-1.026 23.585,-1.656 35.575,-1.656c146.997,0 275.851,79.001 346.457,196.742l288.149,163.521l0,69.391Zm-491.506,635.888l-107.525,-61.893l0,-72.473l170.388,98.074l-62.863,36.293Zm-579.313,-169.234l-60.437,-34.893l0,-892.072l60.437,-34.893l0,961.858Zm-131.582,-75.971l-66.806,-38.57l0,-732.777l66.806,-38.57l0,809.917Zm567.795,-1219.893l-705.746,407.469l0,814.932l705.746,407.469l705.756,-407.469l0,-814.932l-705.756,-407.469Z" style="fill:#111;fill-rule:nonzero;"/><path d="M3021.299,1617.994l-37.949,-169.393c-0.395,-1.667 -1.087,-5.451 -2.682,-18.626c-2.354,6.636 -5.195,13.421 -8.472,20.226l-92.484,188.357l-92.376,-192.014c-3.087,-6.298 -5.857,-12.503 -8.246,-18.482c-0.98,6.728 -2.333,13.775 -4.046,21.011l-36.785,168.921l-61.34,0l84.099,-370.919l105.469,225.583c1.574,3.451 3.923,9.087 7.087,16.959c1.805,4.503 3.836,9.61 6.077,15.344c2.79,-6.949 6.2,-14.764 10.2,-23.37c1.8,-3.892 3.139,-6.903 4.046,-9l103.151,-225.614l86.063,371.017l-61.811,0Zm-141.3,-485.588c-179.844,0 -326.165,146.315 -326.165,326.16c0,179.849 146.321,326.165 326.165,326.165c179.849,0 326.17,-146.315 326.17,-326.165c0,-179.844 -146.321,-326.16 -326.17,-326.16" style="fill:#111;fill-rule:nonzero;"/><path d="M2136.508,3240.267c-5.072,0 -9.949,-0.969 -14.482,-2.877c-4.544,-1.923 -8.626,-4.744 -12.164,-8.375c-3.539,-3.636 -6.298,-7.836 -8.154,-12.441c-1.867,-4.605 -2.81,-9.569 -2.81,-14.775c0,-5.257 0.944,-10.272 2.81,-14.918c1.856,-4.646 4.6,-8.846 8.154,-12.452c3.564,-3.656 7.657,-6.472 12.2,-8.364c4.554,-1.913 9.421,-2.877 14.446,-2.877c5.036,0 9.892,0.98 14.436,2.903c4.58,1.959 8.626,4.764 12.051,8.323c3.549,3.656 6.313,7.877 8.205,12.539c1.892,4.682 2.846,9.672 2.846,14.846c0,5.118 -0.954,10.077 -2.846,14.739c-1.903,4.641 -4.656,8.841 -8.195,12.477c-3.574,3.631 -7.682,6.451 -12.2,8.375c-4.508,1.908 -9.318,2.877 -14.298,2.877m39.939,-77.853c-5.374,-5.246 -11.528,-9.282 -18.308,-12c-6.79,-2.739 -14.067,-4.128 -21.631,-4.128c-7.621,0 -14.934,1.39 -21.749,4.128c-6.8,2.718 -12.969,6.754 -18.354,12c-5.359,5.257 -9.487,11.308 -12.293,17.985c-2.774,6.657 -4.185,13.846 -4.185,21.4c0,7.59 1.41,14.785 4.185,21.39c2.805,6.641 6.944,12.652 12.293,17.846c5.272,5.18 11.426,9.226 18.323,12.041c6.872,2.8 14.205,4.231 21.78,4.231c7.472,0 14.723,-1.421 21.529,-4.195c6.8,-2.78 13.005,-6.841 18.411,-12.067c5.359,-5.205 9.513,-11.236 12.339,-17.929c2.8,-6.667 4.231,-13.836 4.231,-21.318c0,-7.436 -1.431,-14.595 -4.231,-21.293c-2.826,-6.703 -6.964,-12.785 -12.339,-18.093" style="fill:#111;fill-rule:nonzero;"/><path d="M2341.342,3220.054c-1.662,-2.041 -3.267,-3.923 -4.774,-5.595c-1.821,-2 -3.677,-3.964 -5.533,-5.821l-66.473,-63.97l-1.051,-1.005l0,110.853l16.908,0l0,-71.478c1.205,1.641 2.456,3.195 3.723,4.646c1.682,1.938 3.456,3.836 5.303,5.631l67.817,65.099l1.051,1.005l0,-110.771l-16.97,0l0,71.406Z" style="fill:#111;fill-rule:nonzero;"/><path d="M2545.585,3206.918l10.39,0c3.354,0 6.098,0.185 8.139,0.564c2.031,0.374 3.841,0.959 5.364,1.718c2.441,1.318 4.359,3.185 5.682,5.549c1.313,2.385 1.985,5.21 1.985,8.416c0,2.708 -0.554,5.215 -1.641,7.436c-1.113,2.277 -2.636,4.015 -4.667,5.354c-1.626,1.118 -3.898,1.923 -6.733,2.4c-2.949,0.472 -7.41,0.703 -13.272,0.703l-5.246,0l0,-32.139Zm22.729,-17.329c-3.231,2.133 -8.903,3.215 -16.846,3.215l-5.882,0l0,-28.765l5.882,0c8.462,0 14.252,1.118 17.211,3.344c2.918,2.169 4.395,6.057 4.395,11.539c0,4.995 -1.6,8.58 -4.759,10.667m9.744,8.682c3.974,-1.59 7.123,-4.046 9.375,-7.308c2.626,-3.826 3.964,-8.651 3.964,-14.318c0,-4.754 -0.923,-9.149 -2.733,-13.067c-1.836,-3.933 -4.426,-7.164 -7.733,-9.59c-2.574,-1.892 -5.733,-3.277 -9.41,-4.108c-3.631,-0.815 -9.292,-1.231 -16.836,-1.231l-26.99,0l0,105.863l27.139,0c10,0 17.241,-0.61 21.529,-1.805c4.323,-1.215 8.005,-3.333 10.928,-6.308c2.769,-2.723 4.923,-6.062 6.426,-9.939c1.497,-3.851 2.262,-7.995 2.262,-12.293c0,-7.103 -1.81,-13.087 -5.374,-17.79c-3.149,-4.118 -7.369,-6.836 -12.544,-8.108" style="fill:#111;fill-rule:nonzero;"/><path d="M2684.525,3164.465l2.456,0c8.395,0 14.195,1.144 17.246,3.415c2.99,2.226 4.498,6.154 4.498,11.687c0,5.098 -1.395,8.687 -4.159,10.646c-2.851,2.015 -8.764,3.031 -17.585,3.031l-2.456,0l0,-28.78Zm36.652,33.693c4.128,-4.821 6.226,-11.58 6.226,-20.088c0,-4.841 -0.908,-9.349 -2.697,-13.405c-1.795,-4.072 -4.38,-7.451 -7.687,-10.021c-2.769,-2.144 -6.159,-3.703 -10.067,-4.61c-3.851,-0.923 -9.339,-1.385 -16.328,-1.385l-24.349,0l0,105.869l17.18,0l0,-46.811l1,0l34.616,46.56l0.185,0.251l20.79,0l-36.139,-47.744c7.533,-1.097 13.328,-3.99 17.272,-8.616" style="fill:#111;fill-rule:nonzero;"/><path d="M2850.523,3240.267c-5.072,0 -9.949,-0.969 -14.482,-2.877c-4.539,-1.923 -8.621,-4.744 -12.164,-8.375c-3.539,-3.636 -6.292,-7.836 -8.149,-12.441c-1.867,-4.605 -2.815,-9.569 -2.815,-14.775c0,-5.257 0.949,-10.272 2.815,-14.918c1.856,-4.646 4.6,-8.846 8.149,-12.452c3.564,-3.656 7.657,-6.472 12.2,-8.364c4.554,-1.913 9.421,-2.877 14.446,-2.877c5.041,0 9.892,0.98 14.436,2.903c4.58,1.959 8.626,4.764 12.051,8.323c3.549,3.656 6.313,7.877 8.21,12.539c1.887,4.682 2.841,9.672 2.841,14.846c0,5.118 -0.954,10.077 -2.841,14.739c-1.903,4.641 -4.662,8.841 -8.2,12.477c-3.574,3.631 -7.682,6.451 -12.2,8.375c-4.508,1.908 -9.313,2.877 -14.298,2.877m39.939,-77.853c-5.369,-5.246 -11.528,-9.282 -18.308,-12c-6.79,-2.739 -14.067,-4.128 -21.631,-4.128c-7.621,0 -14.934,1.39 -21.744,4.128c-6.805,2.718 -12.975,6.754 -18.354,12c-5.364,5.257 -9.492,11.308 -12.293,17.985c-2.78,6.657 -4.185,13.846 -4.185,21.4c0,7.59 1.405,14.785 4.185,21.39c2.8,6.641 6.939,12.652 12.293,17.846c5.267,5.18 11.426,9.226 18.318,12.041c6.872,2.8 14.205,4.231 21.78,4.231c7.472,0 14.723,-1.421 21.529,-4.195c6.8,-2.78 13.005,-6.841 18.411,-12.067c5.364,-5.205 9.518,-11.236 12.339,-17.929c2.8,-6.667 4.236,-13.836 4.236,-21.318c0,-7.436 -1.436,-14.595 -4.236,-21.293c-2.821,-6.703 -6.964,-12.785 -12.339,-18.093" style="fill:#111;fill-rule:nonzero;"/><path d="M3006.771,3189.165c0.667,-1.672 1.338,-3.528 1.985,-5.513c0.436,-1.359 0.851,-2.774 1.256,-4.231c0.472,1.662 0.928,3.123 1.38,4.451c0.667,1.98 1.328,3.769 1.959,5.318l10.323,22.985l-27.236,0l10.334,-23.011Zm3.067,-45.508l-51.232,109.971l-0.405,0.887l19.236,0l12.149,-26.944l40.647,0l11.867,26.944l19.308,0l-51.006,-109.663l-0.564,-1.195Z" style="fill:#111;fill-rule:nonzero;"/><path d="M3155.301,3237.904l-13.677,0l0,-72.791l11.682,0c8.646,0 15.093,0.518 19.175,1.544c4,1.031 7.498,2.759 10.364,5.164c3.877,3.323 6.8,7.482 8.718,12.375c1.933,4.908 2.918,10.734 2.918,17.318c0,6.585 -0.985,12.405 -2.918,17.303c-1.928,4.903 -4.856,9.067 -8.718,12.375c-2.836,2.41 -6.205,4.154 -10.021,5.164c-3.836,1.026 -9.739,1.549 -17.523,1.549m39.467,-79.34c-4.61,-3.564 -10.067,-6.133 -16.2,-7.646c-6.098,-1.508 -16.744,-2.267 -31.626,-2.267l-23.57,0l0,105.863l28.149,0c12.334,0 21.549,-0.759 27.4,-2.267c5.908,-1.513 11.236,-4.092 15.846,-7.646c6.113,-4.713 10.805,-10.78 13.949,-18.011c3.149,-7.226 4.744,-15.621 4.744,-24.939c0,-9.308 -1.595,-17.734 -4.744,-25.041c-3.144,-7.303 -7.836,-13.38 -13.949,-18.046" style="fill:#111;fill-rule:nonzero;"/><path d="M3369.783,3202.296c-1.277,3.472 -2.339,6.559 -3.159,9.18c-0.544,1.718 -1.01,3.344 -1.395,4.862c-0.656,-2.164 -1.303,-4.195 -1.969,-6.164c-0.897,-2.697 -1.908,-5.498 -2.98,-8.313l-22.734,-58.468l-21.559,57.37c-0.108,0.231 -0.256,0.646 -0.477,1.246l-0.056,0.164c-1.61,4.718 -3.159,9.498 -4.621,14.272c-0.549,-1.774 -1.123,-3.585 -1.744,-5.41c-0.887,-2.651 -1.985,-5.739 -3.267,-9.175l-19.795,-52.811l-0.149,-0.4l-18.103,0l40.693,109.535l0.549,1.508l24.041,-60.888c0.846,-2.21 1.687,-4.6 2.513,-7.072c0.626,-1.887 1.246,-3.882 1.856,-5.949c0.533,1.672 1.097,3.359 1.687,5.041c0.831,2.39 1.774,4.903 2.867,7.703l23.867,59.668l0.605,1.487l41.067,-110.192l0.313,-0.841l-18.257,0l-19.795,53.647Z" style="fill:#111;fill-rule:nonzero;"/><path d="M3497.159,3189.165c0.667,-1.672 1.338,-3.528 1.985,-5.513c0.436,-1.359 0.851,-2.774 1.256,-4.231c0.472,1.662 0.928,3.123 1.38,4.451c0.672,1.98 1.328,3.769 1.959,5.318l10.323,22.985l-27.236,0l10.334,-23.011Zm3.067,-45.508l-51.232,109.971l-0.4,0.887l19.231,0l12.149,-26.944l40.647,0l11.867,26.944l19.308,0l-51.006,-109.663l-0.564,-1.195Z" style="fill:#111;fill-rule:nonzero;"/><path d="M3661.6,3148.649l-22.693,35.365c-0.841,1.287 -1.621,2.646 -2.364,4.149c-0.549,1.108 -1.082,2.267 -1.6,3.472c-0.61,-1.282 -1.21,-2.472 -1.8,-3.564c-0.78,-1.492 -1.441,-2.687 -1.985,-3.61l-22.113,-35.811l-19.339,0l35.734,57.534l0,48.334l18.103,0l0,-48.324l35.913,-56.586l0.621,-0.959l-18.477,0Z" style="fill:#111;fill-rule:nonzero;"/></g></svg>