<?xml version="1.0" encoding="UTF-8" standalone="no"?><!DOCTYPE svg PUBLIC "-//W3C//DTD SVG 1.1//EN" "http://www.w3.org/Graphics/SVG/1.1/DTD/svg11.dtd"><svg width="100%" height="100%" viewBox="0 0 5760 3915" version="1.1" xmlns="http://www.w3.org/2000/svg" xmlns:xlink="http://www.w3.org/1999/xlink" xml:space="preserve" xmlns:serif="http://www.serif.com/" style="fill-rule:evenodd;clip-rule:evenodd;stroke-linejoin:round;stroke-miterlimit:2;"><g><g><path d="M1277.785,1941.714l-38.526,0l0,-591.05l19.617,0.327c9.563,0.163 237.75,5.313 394.033,121.163l-22.069,33.649c-121.082,-89.721 -295.048,-108.794 -353.055,-112.635l0,548.546Z" style="fill:#111;fill-rule:nonzero;"/><path d="M1641.832,1514.37c-153.259,121.518 -153.368,312.322 -0.163,581.814c152.987,-269.437 152.987,-460.16 0.163,-581.814m-0.163,659.301l-16.266,-27.355c-183.911,-309.053 -182.004,-535.822 5.449,-674.151l10.98,-8.228l11.089,8.228c187.017,138.465 188.734,365.207 5.041,674.151l-16.293,27.355Z" style="fill:#111;fill-rule:nonzero;"/><path d="M2044.908,1941.714l-38.608,0l0,-548.546c-58.089,3.842 -232.219,22.914 -353.382,112.635l-22.069,-33.649c156.393,-115.85 384.77,-121 394.36,-121.163l19.699,-0.327l0,591.05Z" style="fill:#111;fill-rule:nonzero;"/><path d="M2874.184,2161.503l-32.75,-21.96c130.836,-219.658 164.458,-395.695 100.402,-523.016c-92.446,-183.857 -365.425,-217.424 -441.224,-223.173l0,548.355l-38.553,0l0,-591.05l19.672,0.436c15.367,0.381 376.051,11.58 494.217,245.951c71.221,141.435 36.973,331.313 -101.764,564.458" style="fill:#111;fill-rule:nonzero;"/><path d="M3639.299,2171.494l-19.699,-0.409c-15.312,-0.381 -376.078,-11.525 -494.217,-245.842c-71.221,-141.435 -36.891,-331.394 101.791,-564.621l32.641,21.96c-130.727,219.767 -164.458,395.832 -100.238,523.234c92.555,183.939 365.343,217.315 441.169,223.009l0,-374.825l-174.457,0l0,-41.087l213.01,0l0,458.579Z" style="fill:#111;fill-rule:nonzero;"/><path d="M3782.42,1712.915l470.159,0l0,-319.57c-75.962,5.749 -348.75,39.316 -441.333,223.173c-14.876,29.535 -24.413,61.74 -28.826,96.397m96.533,448.58c-92.555,-155.548 -138.519,-291.942 -137.702,-407.493l-121.3,0l0,-41.087l123.588,0c4.632,-41.605 15.857,-80.349 33.758,-115.878c118.139,-234.371 478.796,-245.569 494.108,-245.923l19.672,-0.463l0,403.351l-511.301,0c-0.954,107.35 43.103,236.415 131.898,385.56l-32.723,21.933Z" style="fill:#111;fill-rule:nonzero;"/><rect x="2237.091" y="1347.318" width="38.744" height="594.401" style="fill:#111;"/><rect x="4479.909" y="1347.318" width="38.58" height="594.401" style="fill:#111;"/><rect x="1240.575" y="2386.19" width="12.453" height="178.433" style="fill:#111;fill-rule:nonzero;"/><path d="M1349.599,2564.623l11.734,0l0,-75.197c0,-27.02 18.439,-46.392 42.386,-46.392c24.666,0 38.794,17.588 38.794,44.353l0,77.236l11.734,0l0,-79.53c0,-31.098 -17.96,-53.53 -48.852,-53.53c-22.271,0 -35.921,11.98 -44.063,27.275l0,-24.216l-11.734,0l0,130.001Z" style="fill:#111;fill-rule:nonzero;"/><path d="M1584.824,2566.917c7.663,0 13.65,-1.529 19.876,-4.588l0,-11.726c-6.945,3.314 -11.974,4.588 -17.96,4.588c-14.129,0 -24.426,-6.627 -24.426,-25.235l0,-83.863l42.865,0l0,-11.471l-42.865,0l0,-41.549l-11.734,0l0,41.549l-17.721,0l0,11.471l17.721,0l0,85.138c0,24.726 15.326,35.687 34.244,35.687Z" style="fill:#111;fill-rule:nonzero;"/><path d="M1735.284,2567.682c23.468,0 38.076,-10.196 50.528,-24.471l-8.142,-7.647c-10.058,11.471 -22.989,20.392 -41.908,20.392c-23.947,0 -45.739,-18.863 -47.894,-51.236l101.296,0c0.239,-2.039 0.239,-2.804 0.239,-5.098c0,-38.49 -21.792,-68.059 -56.036,-68.059c-33.047,0 -57.952,30.079 -57.952,67.804l0,0.51c0,40.53 27.779,67.804 59.868,67.804Zm-47.415,-74.177c2.155,-28.804 20.834,-50.471 45.021,-50.471c28.018,0 42.147,24.216 43.823,50.471l-88.844,0Z" style="fill:#111;fill-rule:nonzero;"/><path d="M1871.368,2564.623l11.734,0l0,-53.275c0,-42.314 24.666,-65 52.923,-65l1.197,0l0,-13.765c-24.187,-1.02 -44.542,15.804 -54.121,39l0,-36.961l-11.734,0l0,130.001Z" style="fill:#111;fill-rule:nonzero;"/><path d="M2014.875,2564.623l11.734,0l0,-75.197c0,-27.02 18.439,-46.392 42.386,-46.392c24.666,0 38.794,17.588 38.794,44.353l0,77.236l11.734,0l0,-79.53c0,-31.098 -17.96,-53.53 -48.852,-53.53c-22.271,0 -35.921,11.98 -44.063,27.275l0,-24.216l-11.734,0l0,130.001Z" style="fill:#111;fill-rule:nonzero;"/><path d="M2246.508,2567.682c23.229,0 38.315,-12.235 46.697,-24.726l0,21.667l11.495,0l0,-81.059c0,-16.059 -4.31,-28.039 -12.453,-36.706c-8.86,-9.431 -22.031,-14.275 -38.555,-14.275c-16.763,0 -29.934,4.588 -43.344,11.216l4.31,10.961c11.255,-6.118 23.468,-10.451 38.315,-10.451c25.145,0 40.231,13.51 40.231,39.765l0,5.608c-11.734,-3.314 -23.468,-5.608 -40.471,-5.608c-31.61,0 -53.402,15.294 -53.402,42.314l0,0.51c0,27.02 24.426,40.785 47.176,40.785Zm0.718,-11.726c-18.679,0 -35.442,-10.961 -35.442,-29.824l0,-0.51c0,-18.098 14.368,-30.334 40.231,-30.334c17.481,0 31.131,3.059 41.429,5.863l0,14.784c0,23.706 -21.313,40.02 -46.218,40.02Z" style="fill:#111;fill-rule:nonzero;"/><path d="M2434.001,2566.917c7.663,0 13.65,-1.529 19.876,-4.588l0,-11.726c-6.945,3.314 -11.974,4.588 -17.96,4.588c-14.129,0 -24.426,-6.627 -24.426,-25.235l0,-83.863l42.865,0l0,-11.471l-42.865,0l0,-41.549l-11.734,0l0,41.549l-17.721,0l0,11.471l17.721,0l0,85.138c0,24.726 15.326,35.687 34.244,35.687Z" style="fill:#111;fill-rule:nonzero;"/><path d="M2537.038,2400.72l14.608,0l0,-17.079l-14.608,0l0,17.079Zm1.437,163.903l11.734,0l0,-130.001l-11.734,0l0,130.001Z" style="fill:#111;fill-rule:nonzero;"/><path d="M2698.266,2567.682c36.4,0 62.981,-31.608 62.981,-68.059l0,-0.51c0,-36.451 -26.342,-67.549 -62.502,-67.549c-36.4,0 -62.981,31.608 -62.981,68.059l0,0.51c0,36.451 26.342,67.549 62.502,67.549Zm0.479,-11.726c-28.258,0 -50.289,-24.981 -50.289,-56.334l0,-0.51c0,-30.588 20.834,-55.824 49.81,-55.824c28.258,0 50.289,24.981 50.289,56.334l0,0.51c0,30.588 -20.834,55.824 -49.81,55.824Z" style="fill:#111;fill-rule:nonzero;"/><path d="M2845.126,2564.623l11.734,0l0,-75.197c0,-27.02 18.439,-46.392 42.386,-46.392c24.666,0 38.794,17.588 38.794,44.353l0,77.236l11.734,0l0,-79.53c0,-31.098 -17.96,-53.53 -48.852,-53.53c-22.271,0 -35.921,11.98 -44.063,27.275l0,-24.216l-11.734,0l0,130.001Z" style="fill:#111;fill-rule:nonzero;"/><path d="M3076.759,2567.682c23.229,0 38.315,-12.235 46.697,-24.726l0,21.667l11.495,0l0,-81.059c0,-16.059 -4.31,-28.039 -12.453,-36.706c-8.86,-9.431 -22.031,-14.275 -38.555,-14.275c-16.763,0 -29.934,4.588 -43.344,11.216l4.31,10.961c11.255,-6.118 23.468,-10.451 38.315,-10.451c25.145,0 40.231,13.51 40.231,39.765l0,5.608c-11.734,-3.314 -23.468,-5.608 -40.471,-5.608c-31.61,0 -53.402,15.294 -53.402,42.314l0,0.51c0,27.02 24.426,40.785 47.176,40.785Zm0.718,-11.726c-18.679,0 -35.442,-10.961 -35.442,-29.824l0,-0.51c0,-18.098 14.368,-30.334 40.231,-30.334c17.481,0 31.131,3.059 41.429,5.863l0,14.784c0,23.706 -21.313,40.02 -46.218,40.02Z" style="fill:#111;fill-rule:nonzero;"/><rect x="3226.492" y="2378.543" width="11.734" height="186.08" style="fill:#111;fill-rule:nonzero;"/><path d="M3333.6,2564.623l18.439,0l0,-144.276l61.065,95.334l0.958,0l61.065,-95.589l0,144.53l18.918,0l0,-178.433l-19.158,0l-61.065,97.373l-61.065,-97.373l-19.158,0l0,178.433Z" style="fill:#111;fill-rule:nonzero;"/><path d="M3631.567,2567.427c21.313,0 34.005,-11.471 42.386,-25.745l0,22.941l18.2,0l0,-131.785l-18.2,0l0,75.452c0,24.726 -16.045,41.294 -37.118,41.294c-21.792,0 -34.244,-15.294 -34.244,-39.765l0,-76.981l-18.439,0l0,81.824c0,31.353 17.481,52.765 47.415,52.765Z" style="fill:#111;fill-rule:nonzero;"/><path d="M3822.25,2567.172c24.666,0 44.063,-14.53 44.063,-39.51l0,-0.51c0,-23.706 -20.595,-31.608 -39.752,-37.726c-16.524,-5.353 -31.85,-10.196 -31.85,-22.686l0,-0.51c0,-10.961 9.339,-19.118 23.947,-19.118c11.974,0 25.145,4.843 36.639,12.745l8.382,-14.784c-12.692,-8.922 -29.455,-14.53 -44.542,-14.53c-24.426,0 -42.147,15.039 -42.147,37.726l0,0.51c0,24.216 21.552,31.353 40.95,37.216c16.284,4.843 30.892,9.941 30.892,23.196l0,0.51c0,12.745 -10.776,20.902 -25.623,20.902c-14.608,0 -29.455,-6.118 -42.865,-16.824l-9.339,14.02c13.889,11.98 33.526,19.373 51.247,19.373Z" style="fill:#111;fill-rule:nonzero;"/><path d="M3959.292,2506.76l98.183,0c0.239,-3.059 0.239,-5.098 0.239,-6.882c0,-38.745 -21.073,-69.844 -57.713,-69.844c-34.244,0 -59.389,30.588 -59.389,68.824c0,41.04 27.779,68.824 61.784,68.824c23.468,0 38.555,-9.941 51.007,-24.726l-11.495,-10.961c-10.058,11.216 -22.031,18.608 -39.034,18.608c-21.792,0 -40.95,-16.059 -43.584,-43.843Zm0,-15.804c2.634,-25.49 18.918,-44.353 40.231,-44.353c24.426,0 37.358,20.392 39.513,44.353l-79.744,0Z" style="fill:#111;fill-rule:nonzero;"/><path d="M4183.261,2567.427c21.313,0 34.005,-11.471 42.386,-25.745l0,22.941l18.2,0l0,-131.785l-18.2,0l0,75.452c0,24.726 -16.045,41.294 -37.118,41.294c-21.792,0 -34.244,-15.294 -34.244,-39.765l0,-76.981l-18.439,0l0,81.824c0,31.353 17.481,52.765 47.415,52.765Z" style="fill:#111;fill-rule:nonzero;"/><path d="M4332.995,2564.623l18.439,0l0,-75.197c0,-24.216 14.847,-41.549 34.484,-41.549c19.637,0 31.85,14.53 31.85,39.255l0,77.491l18.2,0l0,-75.961c0,-26 15.566,-40.785 34.244,-40.785c20.116,0 32.089,14.275 32.089,39.765l0,76.981l18.439,0l0,-81.569c0,-32.628 -17.481,-53.02 -45.979,-53.02c-21.552,0 -34.723,11.726 -43.584,26.255c-6.705,-14.784 -19.637,-26.255 -39.752,-26.255c-20.834,0 -31.85,11.98 -39.992,24.981l0,-22.177l-18.439,0l0,131.785Z" style="fill:#111;fill-rule:nonzero;"/></g></g></svg>