<?xml version="1.0" encoding="UTF-8" standalone="no"?><!DOCTYPE svg PUBLIC "-//W3C//DTD SVG 1.1//EN" "http://www.w3.org/Graphics/SVG/1.1/DTD/svg11.dtd"><svg width="100%" height="100%" viewBox="0 0 5760 3915" version="1.1" xmlns="http://www.w3.org/2000/svg" xmlns:xlink="http://www.w3.org/1999/xlink" xml:space="preserve" xmlns:serif="http://www.serif.com/" style="fill-rule:evenodd;clip-rule:evenodd;stroke-linejoin:round;stroke-miterlimit:2;"><g id="Ride"><path d="M3107.406,1958.307c-137.457,0 -248.923,-68.49 -248.923,-153.008c0,-84.555 111.466,-153.082 248.923,-153.082c132.789,0 240.909,63.858 248.188,144.442c0.368,2.904 0.735,5.735 0.735,8.639c0,75.548 -89.187,138.193 -206.499,150.619c-13.713,1.507 -27.866,2.39 -42.425,2.39m1382.626,526.596c-122.715,149.7 -526.449,306.127 -819.194,-174.993c-65.402,-149.663 -135.399,-309.95 -93.967,-360.022l-8.86,-0.919c0.588,-0.221 1.397,-0.515 1.985,-0.662c172.456,-67.497 305.098,-184.11 365.904,-310.538c159.037,-330.427 -168.118,-612.327 -512.184,-607.953c-1190.98,15.11 -1645.225,1579.53 -1882.385,1700.664c-182.088,92.827 -282.635,-75.659 -282.635,-75.659c111.062,600.416 712.139,-115.73 994.15,-524.941c291.201,-422.629 650.451,-836.546 847.759,-913.381c523.36,-203.778 589.387,223.299 379.764,474.429c-69.335,-76.982 -207.16,-129.553 -366.124,-129.553c-228.557,0 -413.843,108.378 -413.843,242.233c0,133.744 185.286,242.196 413.843,242.196c93.011,0 178.816,-18.235 247.931,-48.638c75.181,211.903 244.218,753.057 517.405,834.193c492.001,85.805 670.781,-419.799 610.452,-346.456" style="fill:#111;fill-rule:nonzero;"/></g></svg>