<?xml version="1.0" encoding="UTF-8" standalone="no"?><!DOCTYPE svg PUBLIC "-//W3C//DTD SVG 1.1//EN" "http://www.w3.org/Graphics/SVG/1.1/DTD/svg11.dtd"><svg width="100%" height="100%" viewBox="0 0 5760 3915" version="1.1" xmlns="http://www.w3.org/2000/svg" xmlns:xlink="http://www.w3.org/1999/xlink" xml:space="preserve" xmlns:serif="http://www.serif.com/" style="fill-rule:evenodd;clip-rule:evenodd;stroke-linejoin:round;stroke-miterlimit:2;"><g id="The-Bend" serif:id="The Bend"><path d="M1456.546,1508.75c3.059,-4.584 3.059,-9.176 3.059,-13.761c0,-12.235 -6.117,-15.293 -18.352,-15.293c-3.059,0 -6.117,0 -7.643,1.533c-4.592,0 -35.164,1.526 -39.756,3.059c-4.584,1.526 -10.702,1.526 -15.286,1.526c-6.117,0 -12.228,1.533 -16.819,3.059c-12.235,0 -19.878,1.533 -29.054,3.059c-4.584,1.533 -27.514,3.059 -32.106,3.059c-6.117,1.526 -13.761,3.059 -19.878,4.584c-9.169,1.533 -19.871,1.533 -29.047,1.533c-9.176,1.526 -16.819,1.526 -24.469,6.117c-3.052,1.526 -27.514,6.11 -32.106,6.11c-6.117,1.533 -13.761,3.059 -21.404,4.584c-1.526,1.533 -13.761,3.059 -15.286,3.059c-3.059,1.533 -6.117,3.059 -9.176,3.059c-18.352,4.592 -33.638,9.176 -47.399,13.768c-4.592,1.526 -9.176,4.584 -13.761,7.636c-3.059,0 -4.592,1.533 -6.117,1.533c-59.627,24.462 -113.143,77.979 -114.669,145.248c1.526,3.059 1.526,7.65 1.526,10.709c0,1.526 0,4.584 1.533,6.117c4.584,9.169 7.643,18.345 13.753,27.521c1.526,1.526 3.059,4.584 3.059,7.643c1.526,4.584 0,9.176 -3.059,12.235c-3.059,3.059 -6.11,4.584 -10.695,4.584l-6.117,0c-21.411,-15.293 -30.587,-30.58 -32.113,-55.042c0,-7.65 -1.533,-18.345 -3.059,-25.995c0,-1.526 0,-3.059 1.526,-4.584c1.533,-6.117 1.533,-13.761 1.533,-19.878c0,-1.533 1.526,-4.584 3.059,-7.643c0,-6.117 3.059,-15.293 6.117,-19.878c1.526,-3.059 1.526,-6.117 3.059,-9.176c0,-1.533 1.526,-4.584 3.059,-6.11c1.526,-1.533 3.052,-4.592 4.584,-7.65c1.526,-4.584 4.584,-9.176 7.643,-13.761c6.117,-4.584 12.235,-10.702 15.293,-18.345c1.526,-1.533 3.052,-3.059 4.584,-3.059c4.584,-3.059 9.169,-7.643 12.228,-10.702c4.592,-6.117 10.709,-10.709 18.352,-15.293c1.533,-1.526 4.592,-1.526 6.117,-4.584l9.176,-4.584c4.577,-3.059 9.169,-4.592 13.753,-7.65c1.533,0 3.059,-1.526 3.059,-1.526c6.117,-4.592 10.709,-7.65 18.352,-9.176l3.059,0c3.059,-4.584 9.176,-4.584 13.753,-6.117c3.059,-1.526 6.117,-3.052 9.176,-4.584c4.592,-1.526 9.176,-3.059 13.761,-4.584c6.117,-1.533 12.235,-3.059 16.826,-4.592c1.526,0 3.059,-1.526 4.584,-1.526c4.577,-3.059 10.695,-4.584 16.812,-6.117c3.059,0 6.117,-1.526 9.176,-3.059c1.533,0 4.592,-1.526 7.65,-1.526c3.059,1.526 6.117,0 7.643,-1.533c3.059,-1.526 6.117,-3.059 9.169,-1.526c1.526,1.526 3.059,0 4.584,0c4.592,-1.533 9.176,-3.059 13.768,-3.059c1.526,0 3.059,0 4.584,-1.533l4.592,0c9.169,-1.526 18.345,-6.11 27.514,-6.11c7.65,-1.533 12.235,0 16.819,-3.059c1.533,-1.526 4.592,0 6.117,0c6.117,0 12.235,-1.526 16.826,-3.059c4.577,-1.526 10.695,-1.526 15.279,-1.526c1.533,0 3.059,0 4.592,-1.533c6.117,-1.526 18.352,-3.059 24.462,-3.059c3.059,0 6.117,-1.526 7.65,-1.526c1.519,1.526 3.052,1.526 4.577,1.526c4.592,0 9.176,-1.526 13.768,-1.526c1.526,-1.533 4.584,-3.059 7.643,-1.533l4.584,0c10.709,-1.526 21.404,-3.059 32.106,-3.059c4.592,0 9.176,-1.526 13.768,-3.059c6.117,0 12.235,0 16.819,-1.526c4.592,0 6.11,1.526 7.636,1.526c4.592,0 9.176,-1.526 13.768,-3.059l15.293,0c4.584,0 7.643,0 10.702,-1.526c1.526,1.526 3.059,1.526 4.584,1.526c3.052,0 7.643,-1.526 10.702,-3.052l27.521,0c7.65,-3.059 15.286,-3.059 22.929,-3.059c1.533,0 3.059,0 6.117,1.526c4.592,-1.526 6.117,-1.526 9.176,-1.526c13.768,0 25.988,0 39.756,-3.059l35.164,0c1.526,-1.526 4.584,-1.526 7.643,-1.526l10.702,0c4.592,0 7.65,0 10.709,-1.533l30.573,0c4.592,1.533 7.65,0 12.235,0c1.533,-1.526 4.592,-1.526 6.117,-1.526l10.709,0c1.526,1.526 3.052,1.526 4.584,1.526c6.11,-1.526 13.753,-1.526 19.871,-1.526c6.117,-1.533 10.702,-1.533 16.819,-1.533l21.404,0c3.059,-1.526 6.117,-1.526 10.702,-1.526c4.592,1.526 7.65,-1.533 12.235,0l38.223,0c3.059,0 6.117,-1.533 9.176,-1.533l16.819,0c3.052,0 4.584,1.533 7.643,1.533l76.453,0c3.059,1.526 4.584,0 7.643,1.526c6.117,0 12.228,0 18.345,3.059c4.584,1.533 7.643,4.584 9.176,7.643c0,3.059 1.526,4.584 0,7.643c0,4.592 -9.176,10.709 -15.293,10.709c-3.059,1.526 -6.11,1.526 -9.169,0l-4.584,0c-3.059,1.526 -4.592,1.526 -4.592,1.526c-3.059,0 -4.584,-1.526 -7.643,-1.526l-7.65,0c-7.643,0 -13.761,0 -21.397,1.526l-9.176,0c-3.059,0 -6.117,0 -9.176,-1.526c-3.059,0 -6.117,0 -9.176,1.526c-4.584,0 -7.643,1.533 -12.235,1.533l-56.561,0c-6.117,0 -10.709,1.526 -15.293,1.526l-3.059,0c-3.059,-1.526 -6.117,-1.526 -9.176,-1.526c-1.533,0 -4.592,0 -6.117,1.526c-6.117,-1.526 -9.176,-1.526 -12.235,-1.526c-1.526,0 -3.052,0 -4.577,1.526c-1.533,0 -3.059,-1.526 -4.592,-1.526l-9.176,0c-10.702,1.526 -19.878,0 -30.58,1.526c-3.052,0 -6.11,0 -10.695,1.533c-3.059,0 -7.65,1.526 -12.235,1.526l-3.059,0c-4.592,-1.526 -7.65,-1.526 -10.709,-1.526c-4.584,0 -9.176,1.526 -15.279,1.526l-9.176,0c-6.117,0 -10.709,1.526 -16.826,1.526l-3.052,0c-13.768,0 -27.521,0 -41.282,1.533l-44.34,0c-12.235,0 -24.469,3.052 -33.638,13.761c-3.059,4.584 -6.117,7.643 -7.643,10.702c-4.592,3.059 -6.117,7.643 -7.65,12.235c0,3.052 -1.526,6.11 -3.059,9.169c-1.526,1.526 -1.526,3.059 -3.059,4.584c0,3.059 -3.052,7.65 -6.11,10.709c-1.533,3.059 -3.059,7.643 -6.117,10.702c0,3.052 -1.533,6.11 -3.059,9.169c-1.533,1.533 -3.059,3.059 -3.059,4.592c0,4.584 -1.533,7.643 -4.592,9.176c-3.052,4.584 -6.11,9.169 -6.11,13.761c-1.526,4.584 -4.584,9.169 -7.643,12.228c-1.526,3.059 -3.059,6.117 -4.584,9.176c-3.059,6.117 -7.65,13.761 -10.709,21.404c-9.176,18.352 -18.352,33.638 -29.047,47.399c0,1.526 -1.526,3.059 -1.526,4.584c-4.592,10.709 -10.709,21.404 -18.352,30.58c0,0 -1.533,1.533 -1.533,3.059c-4.584,6.117 -7.643,12.235 -10.702,18.345c-1.526,1.533 -1.526,1.533 -1.526,3.059c-3.059,9.176 -9.169,15.293 -15.286,22.937c-3.059,6.117 -7.65,13.761 -10.709,19.878c-3.059,3.059 -7.643,10.702 -9.169,15.293c0,1.526 -1.533,3.052 -3.059,3.052c-3.059,6.117 -7.65,10.702 -9.176,16.819c-4.592,9.176 -12.228,22.937 -19.871,30.58c-3.059,6.117 -6.117,12.235 -9.176,16.819c-6.117,6.117 -12.235,15.286 -15.293,22.937c-6.117,10.702 -10.709,19.878 -19.871,29.047c-1.533,1.533 -1.533,3.059 -3.059,6.117c-3.059,7.643 -7.65,15.293 -13.768,22.937c-4.584,4.584 -9.176,12.228 -12.228,19.878c0,0 -1.533,1.526 -3.059,3.052c-1.533,3.059 -4.592,6.117 -6.117,10.709c0,1.526 -1.533,3.059 -3.059,4.584c-7.643,7.643 -15.286,19.871 -19.878,29.047c-1.526,1.533 -3.052,3.059 -3.052,4.592c-1.533,1.526 -3.059,3.052 -3.059,4.584c-3.059,7.643 -9.176,15.293 -13.768,22.929c-1.526,3.059 -3.059,4.592 -4.584,7.65c-3.059,4.584 -6.117,9.169 -10.695,12.228c0,1.533 -1.533,3.059 -1.533,4.592c-1.526,3.059 -4.584,6.117 -6.117,9.176c-4.584,4.584 -7.643,12.235 -12.235,18.338c-1.526,1.533 -4.584,4.592 -6.117,7.65c-4.584,4.584 -9.176,13.761 -12.235,21.411c-9.162,9.169 -22.929,27.514 -27.514,38.216c-3.059,7.65 -7.65,12.235 -12.235,18.352c-1.526,1.533 -3.059,3.059 -3.059,4.592c-1.526,6.11 -4.584,9.169 -9.176,13.753c-1.526,3.059 -4.577,7.643 -7.636,10.702c0,1.533 -1.533,3.059 -3.059,4.592c-1.533,3.059 -3.059,4.584 -3.059,6.117c-3.059,4.584 -7.643,7.643 -9.176,12.235c-1.526,3.059 -3.059,6.103 -6.117,9.162c-1.526,0 -1.526,1.533 -1.526,3.059c-6.117,9.176 -12.235,21.411 -19.885,29.054c-1.519,1.533 -3.044,3.059 -4.577,4.592c-3.059,9.169 -13.761,21.404 -18.352,29.047c-1.526,0 -3.059,1.526 -3.059,3.059c-3.059,4.584 -4.584,7.643 -9.176,12.235c-1.526,3.059 -3.059,6.117 -6.117,9.176c-6.11,7.636 -9.169,13.753 -13.753,19.871c0,1.526 -1.526,3.059 -1.526,3.059c-3.059,3.059 -6.117,6.117 -6.117,10.702c-1.533,0 -1.533,1.533 -1.533,3.059c-4.584,3.059 -18.345,21.404 -21.404,27.521c0,3.059 -1.533,4.584 -4.592,7.643c-3.059,3.059 -15.286,18.352 -16.812,22.937c-1.533,4.592 -3.059,7.643 -6.117,9.169c-1.526,1.533 -3.059,3.059 -3.059,4.592c-1.526,3.059 -3.059,6.117 -6.117,7.643c-1.526,1.526 -3.059,4.584 -4.584,6.117c-1.533,1.526 -3.059,3.059 -4.592,4.584c-3.059,3.059 -7.643,3.059 -10.702,3.059c-6.117,0 -15.286,-3.059 -15.286,-10.702c0,-16.819 10.695,-33.638 22.929,-45.866c3.059,-4.592 6.117,-7.65 6.117,-12.235c6.117,-7.65 13.768,-15.286 18.352,-22.929c1.526,-3.059 4.584,-6.117 6.117,-9.176c1.526,-7.65 4.584,-9.176 7.636,-12.235c1.533,-1.533 3.059,-3.059 3.059,-6.117c4.592,-6.117 9.176,-12.228 13.768,-18.345c6.11,-6.117 9.169,-12.235 12.228,-19.878c3.059,-4.584 6.117,-7.643 9.176,-12.235c10.702,-13.753 21.404,-29.047 30.58,-44.34c6.117,-6.117 10.702,-15.279 15.293,-24.455c1.526,-3.059 4.584,-6.117 7.643,-9.176c6.11,-7.65 10.695,-16.826 16.812,-24.469c1.533,-3.052 3.059,-6.11 6.117,-10.695c1.533,-1.533 1.533,-3.059 3.059,-4.592c7.65,-10.702 15.293,-21.404 22.937,-33.638c1.533,-1.533 3.052,-4.584 6.11,-6.11c1.533,-1.533 1.533,-3.059 3.059,-4.592c0,-4.584 1.533,-7.643 4.592,-9.169c1.526,-1.533 3.059,-3.059 4.584,-4.592c6.117,-10.702 12.235,-21.411 18.352,-30.573c1.526,-3.059 4.584,-6.117 6.117,-9.176c3.059,-3.059 4.584,-4.592 6.117,-7.65c3.059,-4.584 9.162,-16.819 12.221,-19.878c3.059,-1.526 4.592,-4.584 6.117,-7.643c3.059,-4.584 6.117,-7.643 7.65,-12.228c4.584,-4.592 9.176,-12.235 12.235,-18.352c3.059,-6.117 6.117,-10.702 10.702,-15.293c3.052,-3.059 6.11,-7.636 7.636,-13.753c6.117,-6.117 10.709,-13.761 13.768,-21.404c1.526,-1.533 3.059,-4.592 4.584,-7.65c9.176,-13.753 18.352,-27.521 27.521,-39.749c1.526,-1.526 4.584,-1.526 4.584,-4.584c0,-1.533 6.117,-12.235 7.65,-13.768c4.584,-7.643 7.643,-12.228 12.228,-18.345c1.533,-3.059 4.592,-6.117 4.592,-10.702c0,-1.526 1.526,-1.526 3.059,-3.059c4.584,-7.643 9.176,-15.293 13.761,-22.929c3.052,-3.059 4.577,-6.117 6.11,-9.176c1.526,-3.059 4.584,-7.65 7.643,-10.709c1.533,-1.526 3.059,-3.052 3.059,-6.11c1.533,-3.059 3.059,-4.592 4.592,-7.65c6.117,-6.11 10.702,-13.753 13.761,-21.404c1.533,-3.059 3.059,-7.643 6.117,-10.702c4.584,-4.584 7.643,-9.169 9.176,-15.286c3.052,-4.592 6.11,-10.709 9.169,-15.293c1.526,-1.526 3.059,-3.059 3.059,-4.584c1.526,-3.059 3.059,-6.117 6.117,-9.176c4.584,-4.584 7.643,-10.702 10.702,-18.345c3.059,-6.117 6.117,-10.709 9.176,-15.286c1.526,-1.533 3.059,-3.059 3.059,-4.592c1.526,-6.117 4.584,-10.702 7.636,-13.761c4.592,-7.643 10.702,-15.293 13.761,-24.462c3.059,-7.643 7.65,-13.761 12.235,-18.352c4.592,-6.117 7.65,-13.753 10.709,-19.871c1.526,-6.117 4.584,-10.709 7.643,-15.293c1.533,-1.526 6.11,-10.702 6.11,-13.761c7.643,-10.702 13.761,-21.404 18.352,-33.638c0,-1.526 1.526,-4.584 3.059,-6.11c4.584,-4.592 6.117,-10.709 7.643,-16.826c3.059,-4.584 4.592,-7.643 6.117,-12.228" style="fill:#111;fill-rule:nonzero;"/><path d="M1386.202,2097.399c-1.526,-9.176 0,-16.812 4.584,-24.462c10.709,-24.462 21.411,-47.392 33.638,-70.336c1.526,-1.526 3.059,-3.059 3.059,-4.584c3.059,-3.059 4.584,-7.65 6.117,-10.702c1.526,-4.584 4.584,-7.643 7.643,-9.169c-1.526,-4.592 3.059,-7.65 4.592,-10.709c10.702,-18.345 19.878,-35.164 32.106,-53.509c4.584,-9.176 12.235,-18.352 16.819,-27.528c4.584,-9.169 10.702,-16.812 15.293,-24.462c3.059,-4.584 6.117,-7.643 7.636,-10.702c6.117,-10.702 13.761,-21.404 19.878,-30.58c7.65,-10.695 15.293,-22.929 22.944,-33.631c4.584,-4.592 7.636,-9.176 10.695,-13.761c9.176,-16.819 22.937,-35.164 38.23,-47.399c3.059,-3.059 7.636,-4.592 12.228,-4.592c4.584,1.533 7.643,3.059 10.702,9.176c1.533,4.592 1.533,9.169 0,13.761c-1.526,3.059 -3.059,7.643 -4.584,9.176c-10.709,16.819 -19.878,30.58 -29.047,45.866c-4.592,6.117 -7.65,10.709 -12.235,16.819c-9.176,13.761 -16.826,27.521 -25.988,39.756c-9.176,13.761 -18.352,27.521 -26.002,39.749c-3.059,4.592 -6.11,9.176 -9.169,13.761c-6.117,9.176 -12.228,18.352 -18.345,27.521c0,1.533 -1.533,4.592 -3.059,6.117c-3.059,3.059 -4.592,6.117 -7.65,10.709c-4.584,7.636 -9.169,16.812 -13.761,24.462c-6.117,7.636 -10.702,15.279 -15.286,24.455c-3.059,6.117 -6.11,13.768 -10.702,19.885c-4.584,7.643 -9.176,15.279 -12.235,22.929c-1.526,3.059 -3.059,4.584 -3.059,7.643c-3.059,3.059 -3.059,7.65 -3.059,10.702c0,3.059 1.533,4.592 4.592,4.592c6.117,1.526 10.702,0 15.293,-1.533c6.11,-3.059 12.221,-7.643 18.338,-12.228c4.592,-3.059 7.65,-4.592 12.235,-7.65c1.533,-1.526 3.059,-1.526 3.059,-3.059c10.702,-6.117 21.411,-12.228 30.58,-19.871c1.526,0 3.059,-1.526 6.117,-3.059c1.526,-1.526 3.052,-3.059 6.11,-3.059c1.533,-1.526 4.592,-4.584 7.65,-6.117c9.176,-6.117 16.819,-10.702 25.988,-16.819c3.059,-1.533 4.584,-3.059 7.643,-4.592c4.592,-4.584 12.235,-7.636 18.352,-10.695c1.533,-1.526 3.059,-1.526 4.592,-3.059c6.11,-4.584 13.761,-7.643 21.397,-10.702c12.235,-4.592 24.469,-7.65 36.704,-10.702l6.117,0c4.577,0 9.162,1.533 13.753,1.533c21.411,1.519 33.646,24.462 30.587,39.742c-1.533,7.65 -3.059,15.293 -7.65,21.411c-3.059,6.117 -6.117,12.235 -9.176,18.345c-3.059,6.117 -6.117,12.235 -9.176,18.352c-3.059,3.059 -6.117,13.761 -6.117,18.345c0,3.059 3.059,7.65 7.65,9.169c3.059,1.533 6.117,1.533 9.176,0c10.702,-1.519 21.397,-3.052 30.573,-9.169c1.533,0 3.059,0 4.592,-1.526c7.643,-3.059 15.293,-6.117 21.404,-7.65c4.592,-1.526 9.176,-3.052 12.235,-4.584c19.878,-9.176 41.282,-16.819 61.152,-24.469c1.533,0 3.059,0 4.592,-1.526c6.117,-3.052 13.761,-6.11 21.411,-7.636c19.871,-10.709 41.282,-16.826 62.678,-24.469c10.709,-4.592 21.411,-9.176 32.113,-13.761c9.176,-3.059 19.871,-4.584 29.047,-6.11c4.592,0 7.65,1.526 10.709,4.577c4.584,3.059 4.584,10.702 1.526,15.293c-7.643,10.702 -18.352,16.819 -30.573,21.411c-6.117,1.526 -12.235,4.584 -18.352,7.643c-12.235,4.577 -25.995,9.169 -38.223,15.286c-4.592,1.526 -7.643,3.059 -12.235,4.584c-3.059,1.533 -7.643,3.059 -12.235,4.592c-13.753,4.584 -27.514,10.702 -41.282,15.286c-10.702,4.592 -19.878,9.176 -30.573,12.228c-9.176,1.533 -18.352,4.592 -25.995,9.176c-10.709,4.592 -21.404,7.643 -32.106,10.702c-1.533,1.533 -3.059,1.533 -6.117,1.533c-18.352,10.702 -42.814,18.352 -64.225,21.411c-16.812,0 -33.631,-1.533 -38.216,-22.944c-3.059,-7.643 -3.059,-12.228 -3.059,-19.878c4.584,-15.286 9.169,-27.514 16.819,-42.807c1.526,-1.533 1.526,-3.059 3.059,-4.592c4.584,-6.103 12.235,-21.397 12.235,-29.047c1.526,-4.584 -1.533,-7.643 -6.117,-9.176c-1.533,0 -3.059,-1.526 -6.117,-1.526c-7.65,0 -19.878,6.117 -24.469,10.702c-7.643,4.592 -15.286,9.176 -22.929,13.768c-22.937,13.753 -45.866,27.514 -68.81,41.282c-1.526,1.526 -3.059,1.526 -6.11,3.052c-13.761,9.176 -27.521,18.345 -42.814,27.521c-16.812,13.761 -47.399,32.113 -68.796,32.113c-3.059,0 -6.117,0 -9.176,-3.059c-10.709,-1.526 -18.352,-13.761 -21.411,-22.937" style="fill:#111;fill-rule:nonzero;"/><path d="M1884.647,2077.527c-1.526,-15.293 0,-30.587 10.702,-42.814c3.059,-6.11 9.169,-9.169 15.286,-12.228c7.65,-3.059 15.293,-7.65 21.411,-10.709c9.176,-3.059 15.293,-9.176 19.871,-16.819c1.526,-4.584 4.584,-9.176 6.117,-13.753c6.117,-27.521 29.054,-36.697 55.042,-39.756c9.176,0 18.352,3.059 27.528,6.117c9.169,1.526 16.812,4.584 18.345,16.819c0,6.11 -3.059,9.169 -7.65,12.228c-6.11,1.533 -9.169,1.533 -15.286,1.533c-4.584,0 -9.169,0 -13.761,-1.533c-4.584,0 -7.643,0 -10.702,1.533c-4.592,1.526 -7.65,3.059 -9.176,9.169c-1.533,3.059 -1.533,6.117 1.526,9.176c4.592,4.584 7.65,9.169 13.768,16.819c4.584,6.117 4.584,12.235 -1.533,18.352c-3.059,1.519 -6.117,4.577 -9.176,4.577c-3.059,0 -4.584,1.526 -6.117,1.526c-7.636,0 -19.871,1.533 -29.047,3.059l-4.584,0c-4.592,1.533 -7.65,1.533 -12.235,1.533c-4.584,1.526 -7.636,3.059 -12.228,4.584c-1.526,0 -3.059,1.533 -4.584,3.059c-4.592,0 -9.176,4.592 -12.235,9.176c-4.592,3.059 -4.592,9.176 -1.533,13.768c6.117,13.753 24.469,16.812 38.223,16.812c1.533,1.526 3.059,1.526 4.592,1.526c15.293,0 33.631,-6.117 48.925,-9.176c4.592,-1.519 9.176,-3.052 13.761,-3.052c9.176,-3.052 18.345,-4.584 25.995,-6.11c18.345,-4.592 36.697,-9.176 55.042,-13.768c1.526,-1.526 3.059,-1.526 4.584,-1.526c4.592,-1.533 9.176,-3.059 12.235,-3.059c10.702,-3.059 21.404,-6.117 32.106,-9.176c7.65,-3.059 16.819,-6.117 24.469,-9.176c12.228,-3.059 24.455,-7.636 36.69,-10.695c4.592,-1.533 10.709,-4.592 15.293,-6.117c9.169,-3.059 19.871,-6.117 29.047,-10.709c10.709,-3.059 19.878,-7.643 30.58,-10.702c10.702,-3.059 21.404,-9.176 32.113,-12.235c1.526,0 3.059,-1.526 6.117,-1.526c6.117,-3.052 12.228,-3.052 19.871,-4.584l3.059,0c9.176,0 15.293,9.169 13.761,16.819c-3.059,10.702 -21.411,19.878 -30.573,22.937c-12.235,3.059 -22.944,7.643 -35.171,12.235c-18.345,6.103 -35.164,12.221 -51.991,16.812c-7.643,3.059 -13.753,6.117 -19.871,7.643c-13.761,4.592 -25.995,10.709 -39.756,13.768c-6.11,1.526 -12.228,3.059 -18.345,6.117l-6.117,0c-1.526,0 -3.059,3.052 -4.584,4.584c-4.592,0 -9.176,3.052 -13.768,3.052c-12.228,4.584 -24.455,7.643 -36.69,12.235c-36.697,10.702 -73.387,19.878 -111.617,22.937c-1.533,1.526 -3.059,1.526 -4.592,1.526c-4.577,1.533 -9.162,1.533 -13.753,1.533c-9.176,1.526 -18.352,1.526 -27.528,3.059c-33.631,-3.059 -67.27,-9.176 -71.854,-47.399" style="fill:#111;fill-rule:nonzero;"/><path d="M2575.735,2366.501c3.059,3.059 3.059,6.117 4.584,10.695c1.533,6.117 4.592,10.709 9.176,15.293c3.059,4.592 6.117,7.65 9.169,13.761c1.533,1.533 3.059,3.059 6.117,4.592c0,0 1.533,1.526 3.059,1.526c4.584,4.592 19.878,15.286 27.528,16.819c1.526,1.526 3.059,1.526 4.584,1.526c1.533,1.533 4.592,3.059 6.11,3.059c12.235,4.584 22.937,7.643 33.646,12.235l4.584,0c1.526,0 3.059,0 4.584,1.526c1.533,0 4.592,0 6.117,1.533c7.643,1.526 15.286,3.059 22.937,1.526c1.526,0 4.584,1.533 6.11,1.533c6.117,1.526 10.709,1.526 16.826,1.526l12.228,0c3.052,1.533 4.584,1.533 7.643,1.533c3.059,0 6.117,0 9.176,-1.533l16.819,0c3.059,1.533 4.592,1.533 7.636,0c12.235,0 27.528,0 39.763,-3.059l6.117,0c1.519,-1.526 4.577,-1.526 6.11,-1.526c9.176,-1.533 16.819,-3.059 25.995,-3.059c7.643,-1.533 15.293,-4.592 22.929,-4.592c9.176,-1.526 22.937,-3.059 32.113,-6.117c9.176,-3.052 18.345,-6.11 27.521,-7.643c9.176,-1.526 18.345,-4.577 27.521,-7.636c9.169,-3.059 16.819,-4.592 25.988,-7.65c3.059,-1.526 7.65,-3.059 12.235,-4.584c10.709,-3.059 22.929,-7.643 32.106,-12.235c7.65,-3.059 13.768,-6.117 21.411,-7.643c7.643,-4.592 16.812,-9.176 24.462,-13.761c6.117,-1.526 12.235,-4.584 18.345,-7.643c4.592,-3.059 21.404,-13.761 24.462,-13.761c3.059,-1.533 6.117,-3.059 9.176,-4.592c1.526,-1.526 1.526,-1.526 3.059,-3.059c4.584,-1.526 7.643,-4.584 10.702,-7.643c6.117,-4.592 15.293,-9.176 21.404,-13.753c4.584,-1.533 12.235,-7.65 15.293,-10.709c7.643,-4.584 15.293,-9.176 21.411,-15.293c6.11,-4.584 10.695,-7.643 12.221,-12.228c6.117,-4.592 7.65,-7.65 10.709,-10.702c12.228,-9.176 21.404,-22.937 29.054,-36.697c0,-1.533 1.526,-3.059 3.059,-3.059c1.526,-3.059 3.059,-6.117 4.584,-9.169c1.526,-4.584 3.052,-10.702 7.643,-13.761c1.526,-1.533 1.526,-3.059 1.526,-4.592c1.526,-4.584 3.059,-7.643 4.584,-10.702c1.533,-1.533 1.533,-3.059 1.533,-6.117c0,-3.059 1.526,-4.592 3.059,-7.65c1.526,-3.052 3.059,-6.103 3.059,-9.162c0,-1.533 0,-4.592 1.526,-6.117c1.533,-3.059 3.059,-6.117 3.059,-10.709c1.533,-6.117 1.533,-12.228 1.533,-19.878l0,-12.228c1.526,0 0,-1.526 0,-3.059c-1.533,-6.117 -1.533,-13.761 -6.117,-19.878c-1.533,0 -1.533,-1.526 -1.533,-3.059c-6.117,-18.338 -33.631,-50.458 -48.925,-55.042c-1.526,-1.533 -3.059,-1.533 -3.059,-3.059c-9.176,-9.169 -48.925,-16.812 -59.634,-18.345c-3.059,0 -4.584,0 -6.103,-3.059c-1.533,-1.526 -1.533,-1.526 -3.059,0c-1.533,3.059 -4.592,3.059 -6.117,3.059c-3.059,-1.526 -6.117,-1.526 -7.65,-1.526c-18.352,0 -50.458,3.059 -65.744,9.176l-4.592,0c-3.059,-1.533 -7.643,0 -10.695,1.526c-6.117,0 -12.235,1.526 -18.352,4.584c-6.117,1.526 -10.702,1.526 -15.293,3.052c-4.584,1.533 -9.176,1.533 -13.761,3.059c-6.11,0 -12.228,1.533 -18.345,4.592c-9.176,3.059 -19.878,6.117 -29.054,7.643c-3.052,0 -4.577,0 -6.11,1.533c-9.176,1.526 -16.819,4.584 -25.995,7.643c-6.117,1.533 -10.702,4.592 -15.293,9.176c-3.059,1.533 -4.584,4.592 -6.11,6.117c-1.526,1.533 -3.052,3.052 -4.584,4.577c0,3.059 -6.117,10.709 -9.176,13.768c-1.526,3.059 -4.584,4.584 -6.117,7.643c-3.059,3.059 -7.643,7.65 -9.176,12.235c-3.059,6.117 -4.584,10.702 -9.176,15.286c-1.526,1.526 -4.584,4.584 -6.11,7.643c-4.584,6.117 -3.052,12.235 1.526,16.819c15.293,7.65 27.528,9.176 45.866,9.176l9.176,0c6.117,0 16.826,0 22.937,1.533l3.059,0c9.176,1.526 18.345,1.526 27.521,3.059c4.584,0 7.643,0 12.235,1.526l3.059,0c13.761,0 27.514,1.533 41.282,6.117c3.059,1.526 7.643,3.052 10.702,3.052c10.702,1.526 12.235,3.059 19.871,13.761c0,1.533 1.533,3.059 0,6.117c0,10.709 -9.169,15.293 -19.871,15.293c-3.059,0 -6.117,-1.526 -9.176,-3.059c-7.643,0 -18.352,-1.526 -25.988,-4.584c-3.059,-1.533 -4.584,-1.533 -7.643,-1.533c-3.059,0 -4.592,0 -6.117,-1.526c-3.059,-1.533 -6.117,-1.533 -9.176,-1.533c-6.117,-1.526 -12.235,-1.526 -18.352,-3.059l-3.059,0c-6.11,0 -12.228,0 -18.345,-3.059l-13.761,0c-6.117,-1.526 -12.235,-3.059 -18.352,-1.526c-1.526,0 -3.052,0 -4.577,-1.533c-6.117,-1.526 -18.352,-1.526 -24.469,-1.526l-4.584,0c-7.65,1.526 -13.761,1.526 -21.404,1.526l-7.643,0c-6.117,1.533 -12.235,4.592 -18.352,7.65c-1.526,1.526 -4.584,3.059 -6.117,4.584c-6.117,3.059 -10.702,7.65 -13.753,13.768c0,1.526 -24.469,32.106 -27.528,33.631c-4.584,4.584 -7.643,7.643 -12.235,12.235c-1.526,1.526 -3.059,1.526 -4.584,1.526c-3.052,0 -7.636,0 -12.228,-1.526c0,0 -1.526,0 -3.059,-1.533c-3.059,-4.584 -3.059,-18.345 0,-22.937c1.533,-1.526 1.533,-3.059 3.059,-6.117c0,-1.526 1.533,-3.059 3.059,-6.117c1.533,-3.052 4.592,-6.11 4.592,-9.162c3.044,-6.117 0,-12.235 -4.592,-15.293c-3.059,-1.533 -6.117,-3.059 -9.176,-1.533c-3.059,0 -6.117,1.533 -9.176,1.533c-1.526,1.526 -4.584,1.526 -6.117,1.526c-4.584,0 -7.643,0 -12.228,1.533c-6.117,1.526 -12.228,3.059 -18.345,6.117l-4.592,0c-1.526,1.526 -4.584,1.526 -6.117,1.526c-1.526,1.533 -12.228,4.592 -15.286,4.592c-3.059,1.526 -7.65,1.526 -12.228,3.052c-1.533,0 -3.059,1.533 -4.592,3.059c-1.526,1.526 -4.584,3.052 -7.643,3.052c-12.235,4.592 -25.995,10.709 -38.223,16.826c-1.526,1.526 -3.059,3.059 -6.117,4.584c-6.117,6.117 -12.235,10.702 -19.878,15.293c-1.533,0 -3.059,1.526 -4.592,1.526c-6.11,7.65 -12.228,13.761 -18.338,21.404c-15.293,18.352 -18.352,33.646 -21.411,56.575c0,6.117 0,13.761 3.059,19.878m-35.164,-18.352l0,-3.059c-1.526,-4.584 -1.526,-7.643 0,-12.235l0,-10.695c1.526,-6.117 3.059,-12.235 4.584,-19.878c3.052,-9.176 16.819,-29.047 21.404,-36.697c3.059,-3.059 27.528,-24.462 29.054,-27.521c3.052,-1.533 7.643,-4.592 10.702,-9.176c4.584,-3.052 9.169,-6.11 13.761,-7.636c6.117,-3.059 10.702,-6.117 16.819,-9.176c7.65,-6.117 15.286,-9.176 24.462,-12.235c4.584,-1.533 9.176,-3.059 12.235,-4.592c4.584,-3.059 45.866,-13.761 53.509,-15.286c1.533,-1.526 4.592,-1.526 6.117,-3.052c7.65,-3.059 18.345,-4.592 27.521,-4.592l9.176,0c4.584,-1.526 10.702,-1.526 15.293,-3.059l4.584,0c3.059,-1.526 7.636,-3.059 10.695,-1.526c1.533,0 3.059,0 4.592,-1.533c7.643,-1.526 15.293,-4.584 22.937,-7.643c1.526,-1.533 3.059,-1.533 4.584,0c0,-4.592 1.533,-6.117 3.059,-6.117c7.643,-4.584 12.228,-9.176 15.286,-13.761c3.059,-4.592 4.592,-9.169 7.65,-12.228c4.584,-6.117 7.643,-10.709 10.702,-16.819c6.117,-10.709 13.761,-21.411 21.411,-32.106c7.636,-7.65 12.221,-15.293 16.812,-24.469c1.526,-3.059 4.584,-6.117 6.117,-7.65c3.059,-3.059 4.584,-7.643 6.117,-10.702c1.526,-3.052 1.526,-6.11 4.584,-7.636c3.059,-6.117 7.65,-12.235 12.235,-18.352c4.577,-4.584 7.636,-10.702 9.169,-16.819c3.059,0 15.293,-19.878 16.819,-22.929c4.592,-7.65 9.176,-16.819 13.761,-24.469c3.059,-3.059 6.117,-6.117 7.65,-9.176c1.526,-1.519 3.059,-3.052 3.059,-4.577c1.526,-3.059 3.052,-6.117 6.11,-9.176c1.526,-1.533 3.059,-3.059 3.059,-4.592c6.117,-9.169 13.761,-19.871 18.345,-30.58c1.533,-3.052 4.592,-4.584 6.117,-7.643c1.533,-3.059 3.059,-6.117 6.117,-12.235c1.533,-3.059 7.65,-4.584 6.117,-9.169c3.059,-4.584 4.584,-7.643 6.11,-10.702c1.526,-6.117 7.643,-13.761 10.702,-18.352c3.059,-3.052 7.65,-9.169 7.65,-13.761c6.117,-4.584 7.643,-10.702 12.235,-16.819c0,-1.526 1.526,-3.059 3.059,-6.117c1.526,-1.526 4.584,-4.577 4.584,-6.11c4.584,-7.643 12.228,-10.702 19.871,-12.235c4.592,0 9.176,1.533 12.235,7.65c1.533,0 1.533,1.526 1.533,3.059l0,10.695c0,3.059 -1.533,4.592 -1.533,7.65c-4.584,6.117 -9.176,12.228 -12.235,19.878c0,1.526 -1.526,3.059 -1.526,3.059c-7.65,12.228 -13.761,22.929 -19.871,35.164c-3.059,3.052 -6.117,6.11 -7.65,10.702c-4.584,6.117 -7.643,12.235 -12.235,18.345c-3.059,6.117 -7.643,10.702 -10.702,16.819c-4.592,3.059 -6.117,9.176 -9.169,15.293c-3.059,4.584 -4.584,9.176 -9.176,13.753c-1.526,1.533 -1.526,3.059 -3.059,4.592c-3.059,7.643 -7.643,15.293 -13.761,22.937c-1.533,1.526 -3.059,3.059 -4.592,6.117c-4.584,7.643 -9.169,13.761 -13.761,21.397c-1.526,3.059 -1.526,4.592 -3.052,6.117c-3.059,6.117 0,12.235 6.11,15.293l7.65,0c3.052,0 4.584,0 7.643,-1.533c4.584,-1.526 10.702,-3.059 15.293,-4.584c6.117,-1.526 12.228,-1.526 18.338,-4.584c1.533,-1.533 3.059,-1.533 6.117,-1.533c7.65,-3.059 16.826,-6.117 24.469,-7.643c1.533,-1.533 3.059,-1.533 4.592,-1.533c1.526,-3.059 4.584,-4.584 7.643,-4.584c4.577,-1.533 7.636,-1.533 10.695,-3.052c1.533,0 3.059,-1.533 4.592,-1.533c7.643,-4.584 15.286,-7.643 21.404,-9.176c7.65,-1.526 13.761,-4.584 19.878,-7.643c3.059,-3.059 7.643,-6.117 12.228,-6.117c3.059,0 4.592,-1.526 7.65,-3.052c1.526,-3.059 3.059,-3.059 6.117,-4.592c3.059,0 4.584,-1.526 7.643,-3.059c1.533,-1.526 3.059,-3.059 4.592,-3.059c6.103,-4.584 13.753,-7.643 19.871,-10.695c1.526,0 3.059,-1.533 4.584,-1.533c1.533,-1.526 1.533,-3.059 3.059,-3.059c4.592,-1.526 9.176,-4.584 13.768,-7.643c3.052,-3.059 6.11,-4.592 10.695,-6.117c3.059,-3.059 6.117,-4.592 9.176,-7.643c4.584,-1.533 7.643,-6.117 12.235,-6.117c0,-1.533 1.526,-3.059 3.052,-3.059c1.533,-3.059 3.059,-4.584 6.117,-6.117c9.176,-6.117 16.826,-12.228 22.937,-19.878c1.526,-1.526 1.526,-3.059 3.059,-4.584c7.643,-6.117 12.228,-13.761 18.345,-19.878c1.533,-1.526 1.533,-3.059 3.059,-4.584c3.059,-3.059 6.117,-7.643 9.176,-12.235c0,-1.526 1.533,-4.584 3.059,-6.11c13.753,-13.768 30.58,-70.336 32.106,-88.681c1.533,-3.059 1.533,-6.117 1.533,-9.176c0,-4.592 1.526,-9.176 0,-15.286c-1.533,-3.059 -1.533,-6.117 -3.059,-9.176c0,-4.592 -1.533,-9.176 -3.059,-13.761c0,-1.533 -1.533,-4.584 -1.533,-6.117c-1.526,-6.117 -3.059,-10.702 -4.584,-15.293c-3.059,-1.526 -3.059,-4.584 -4.592,-7.643l0,-3.059c-1.526,-3.059 -12.221,-22.929 -13.753,-25.988c0,-4.592 -4.584,-9.176 -7.643,-12.235c-1.533,-4.584 -7.65,-12.228 -10.709,-15.286c0,-3.059 -1.526,-4.592 -4.584,-6.117c-3.059,-1.533 -4.592,-3.059 -6.117,-6.117c0,-3.059 -3.059,-4.584 -4.592,-6.117c-3.052,-1.526 -3.052,-3.059 -4.584,-4.584c-4.584,-4.592 -9.169,-9.176 -13.753,-12.235c-3.059,-1.526 -3.059,-3.052 -4.592,-4.584c-19.878,-19.878 -48.925,-39.756 -73.394,-48.925c-3.059,-3.059 -7.643,-4.592 -12.221,-6.117c-6.117,-3.059 -12.235,-4.584 -19.885,-9.176c-1.526,0 -27.521,-6.11 -30.573,-9.169c-16.826,-4.592 -36.704,-9.176 -53.516,-10.709c-3.059,-1.526 -6.117,-1.526 -9.176,0c-1.526,0 -4.584,0 -6.117,-1.526l-19.878,0c-6.117,0 -12.228,-1.533 -18.345,-1.533c-12.235,0 -19.878,0 -29.054,1.533c-4.584,1.526 -10.695,1.526 -16.812,1.526c-9.176,0 -18.352,1.533 -29.054,3.059c-4.592,1.533 -9.176,3.059 -15.286,3.059c-3.059,1.533 -6.117,1.533 -7.643,3.059c-6.117,1.533 -10.709,3.059 -15.293,3.059c-1.533,0 -3.059,1.533 -4.592,1.533c-3.059,1.526 -7.643,3.052 -12.235,4.584c-6.103,0 -12.221,3.059 -18.338,6.117c-1.533,0 -4.592,1.526 -7.65,1.526c-4.584,1.526 -9.176,3.059 -13.761,6.117c-4.584,1.526 -10.702,4.584 -15.293,6.11c-6.11,3.059 -13.753,6.117 -19.871,9.176c-3.059,1.533 -6.117,3.059 -9.176,6.117c-4.584,1.533 -9.176,4.592 -13.761,7.65c-7.636,3.052 -15.286,7.636 -21.404,12.228c-4.584,4.584 -9.176,9.176 -15.293,10.702c0,0 -1.526,1.533 -1.526,3.059c-1.533,1.526 -3.059,3.059 -4.592,3.059c-6.11,3.059 -9.169,7.643 -13.753,10.702c-3.059,3.059 -4.584,4.584 -7.643,6.117c-3.059,3.059 -6.117,4.584 -9.176,7.643c-3.059,4.584 -6.117,7.643 -10.702,10.702c-3.059,3.059 -7.65,6.117 -10.709,10.702c-6.117,6.117 -12.228,13.761 -19.871,19.878c-3.059,3.059 -4.584,4.592 -6.117,9.176c0,1.526 -1.526,3.052 -3.059,4.584c-4.584,1.526 -18.352,18.345 -19.878,22.937c-1.533,4.584 -6.117,7.643 -7.65,12.235c-4.577,4.584 -7.636,7.636 -7.636,12.228c0,0 -1.526,1.526 -3.059,3.059c-3.059,3.059 -4.584,7.643 -6.117,10.702c-1.526,1.533 -3.059,3.059 -3.059,4.584c-1.526,1.533 -3.059,4.584 -4.584,7.643c0,1.533 -1.533,3.059 -3.059,6.117c-9.176,16.819 -16.819,33.638 -22.929,51.991c-3.059,4.584 -4.592,10.695 -4.592,15.286c-1.526,4.584 -3.059,10.702 -6.117,15.286c-1.526,1.533 -3.059,13.768 -3.059,16.819c-3.059,6.117 -3.059,10.702 -3.059,16.819c0,3.059 0,6.117 -1.526,9.176c0,7.643 -1.533,13.761 -1.533,21.404c-1.526,3.059 0,6.117 0,7.65c0,10.702 1.533,21.404 4.592,32.106c1.526,3.059 1.526,7.643 3.059,12.235c1.526,7.636 3.059,13.753 7.643,21.404c3.059,3.059 6.11,7.643 7.643,12.228c3.059,4.592 6.117,9.176 10.702,12.235c1.526,0 3.059,3.059 4.584,4.584c1.533,1.533 3.059,3.059 4.592,4.592c3.059,1.519 6.117,3.052 7.643,6.11c6.117,4.584 12.235,9.176 21.404,10.702c1.526,0 3.059,1.533 4.584,3.059c3.059,0 4.592,1.533 6.117,3.059c4.592,0 7.65,1.526 12.235,4.584l6.117,0c4.592,0 10.702,0 16.819,3.059l7.643,0c0,-1.526 1.526,-1.526 3.059,-1.526c6.117,0 10.702,-1.533 18.345,-4.592c1.533,1.533 3.059,1.533 4.592,1.533c3.059,0 7.643,-1.533 12.235,-1.533c3.052,1.533 4.577,1.533 7.636,1.533c3.059,1.526 6.117,3.059 7.643,6.117c1.533,6.117 0,12.235 -4.584,15.293c-15.286,12.221 -32.106,13.753 -50.458,15.279c-1.526,0 -4.584,0 -6.11,-1.526l-7.643,0c-3.059,0 -4.584,0 -6.117,1.526c-1.526,0 -4.584,0 -6.117,-1.526c-4.584,0 -9.176,0 -12.235,-1.533c-3.059,0 -4.584,0 -7.643,-1.526c-1.533,-1.533 -4.592,-1.533 -7.65,-1.533c-3.044,0 -7.636,-1.526 -10.695,-3.052c-3.059,-3.059 -7.643,-4.584 -10.702,-6.11c-7.65,-4.592 -12.235,-7.65 -16.819,-12.235c-1.533,-1.533 -4.592,-3.059 -7.65,-4.592c-3.059,0 -4.577,-1.526 -6.11,-4.584c0,0 -13.761,-13.761 -15.293,-15.293c-6.11,-6.117 -7.643,-13.753 -13.761,-18.345c-4.584,-6.11 -7.643,-13.761 -10.702,-21.404c-1.533,-6.117 -4.592,-10.702 -4.592,-16.819c0,-4.584 -1.526,-9.169 -3.059,-12.228c-1.519,-6.117 -1.519,-10.709 -1.519,-15.293c0,-3.059 0,-6.117 -1.533,-9.176l0,-21.404c1.533,-6.117 0,-10.702 0,-16.819l0,-12.228c3.052,-9.176 3.052,-18.352 4.584,-25.995c1.526,-7.643 3.059,-16.819 4.584,-24.462c1.533,-6.117 1.533,-10.702 4.592,-15.286c3.059,-3.059 3.059,-7.65 3.059,-12.235c1.526,-1.533 1.526,-3.059 1.526,-4.592c4.592,-7.643 6.117,-16.812 10.709,-24.462c0,-1.526 1.526,-4.584 3.052,-7.643c1.533,-3.059 3.059,-6.117 4.592,-10.702c1.526,-3.059 3.059,-4.592 4.584,-7.643c3.059,-4.584 6.117,-10.702 9.176,-15.293c1.533,-4.584 4.584,-7.643 6.11,-12.228c1.533,-6.117 6.117,-12.235 10.702,-16.819c3.059,-3.059 6.117,-7.65 7.65,-10.702c1.526,0 1.526,-1.533 1.526,-3.059c1.533,-3.059 3.059,-6.117 6.117,-9.176c1.533,0 3.059,-1.533 3.059,-3.059c1.533,-6.11 7.65,-9.169 10.709,-13.761c1.526,-1.526 3.059,-3.059 4.577,-4.584c6.117,-10.709 12.235,-18.345 21.411,-24.462c1.526,-3.059 4.584,-4.592 6.117,-7.65c0,-1.526 1.526,-4.584 4.584,-4.584c3.059,-1.526 4.592,-4.584 6.117,-6.117c3.059,-6.117 9.176,-10.702 13.753,-13.761c3.059,-4.584 7.65,-7.643 10.709,-10.702c4.584,-3.059 7.643,-7.643 12.228,-10.702c3.059,-3.059 6.117,-4.592 9.176,-6.117c3.059,-1.526 6.117,-3.052 7.65,-6.11c3.059,-3.059 7.636,-6.117 12.228,-9.176c4.584,-1.533 9.169,-4.592 12.228,-9.176c4.592,-3.059 9.176,-6.117 13.768,-7.643c3.059,-1.533 6.117,-3.059 7.643,-4.592c9.176,-4.584 13.753,-9.169 21.404,-12.228c10.702,-7.643 41.282,-18.352 51.983,-21.411c9.176,-4.584 19.878,-6.11 27.528,-9.169c1.526,-1.526 3.059,-1.526 4.584,-1.526c4.584,-3.059 9.169,-3.059 13.753,-4.592c7.65,0 13.768,-3.059 19.885,-4.584c9.176,0 12.235,0 19.871,-3.059c6.117,-1.533 10.702,-1.533 18.352,-1.533c6.117,0 12.228,-1.526 18.345,-3.059c10.702,0 21.404,-1.526 32.106,-3.052l7.65,0c6.117,0 13.761,0 21.397,1.526l13.768,0c3.059,1.526 6.117,1.526 7.643,1.526c3.059,-1.526 6.117,0 7.65,0c7.643,1.533 15.286,1.533 22.929,1.533c3.059,1.526 4.584,1.526 7.643,1.526c3.059,1.533 6.117,1.533 9.176,1.533c9.176,-1.533 18.352,1.526 27.521,3.059c4.584,1.526 10.702,3.059 16.819,4.584c7.643,1.533 15.293,4.592 22.937,7.65c0,0 1.533,0 3.059,1.526c4.592,0 7.636,1.526 12.228,4.584c21.411,10.702 41.282,21.411 61.159,33.638c3.059,1.526 4.584,3.059 6.117,4.584c7.643,3.059 24.462,15.293 29.047,21.411c7.643,4.584 21.411,16.812 22.937,21.404c4.592,4.584 9.176,9.176 13.768,15.286c4.584,1.533 6.103,4.592 9.162,9.176c0,1.526 1.533,3.059 3.059,3.059c3.059,4.584 6.117,9.176 9.176,13.761c1.533,1.526 1.533,3.059 3.059,4.584c3.059,3.059 4.592,9.176 7.65,13.768c3.059,6.11 6.117,12.228 10.702,18.345c1.526,1.526 1.526,3.059 1.526,4.584c1.533,3.059 1.533,6.117 3.059,9.176c4.592,6.11 7.65,13.761 9.169,21.404c0,4.584 1.533,7.643 1.533,12.235c1.526,7.643 3.059,15.286 4.584,22.929c-1.526,7.65 1.533,15.293 1.533,21.404l0,7.65c-1.533,1.526 -1.533,4.584 -1.533,7.643c1.533,3.059 0,6.117 0,7.643c-1.526,3.059 -1.526,4.592 0,7.65c0,3.052 0,4.584 -1.526,7.643c0,1.526 -1.533,13.761 -3.059,15.286c-1.533,6.117 -3.052,10.709 -3.052,16.819c0,1.526 0,1.526 -1.533,3.059c-1.526,4.584 -3.059,9.176 -4.584,13.761c-4.592,7.643 -7.65,13.761 -9.176,19.878c-6.117,15.286 -21.411,33.631 -33.646,45.866c-4.577,6.117 -9.162,10.702 -12.221,16.819c-1.533,1.533 -3.059,3.059 -4.592,4.592c-3.059,1.526 -4.584,1.526 -6.117,3.052c-9.176,13.761 -41.282,36.697 -55.042,45.873c-3.059,1.526 -6.117,3.059 -9.176,6.117c0,0 -1.526,1.526 -3.059,1.526c-6.117,3.059 -25.988,15.293 -30.573,19.878c-1.533,0 -1.533,1.526 -3.059,3.059c-3.059,3.059 -3.059,4.584 0,9.169c3.059,4.584 6.117,6.117 10.702,6.117c3.059,1.526 6.117,1.526 9.176,3.059c6.11,0 9.169,0 15.286,3.059c3.059,0 4.584,1.526 6.117,1.526c9.169,3.059 15.286,6.117 22.937,12.235c1.526,1.526 4.584,3.059 7.643,4.584c9.169,4.592 19.871,12.235 24.462,21.404c3.059,3.059 4.584,4.584 7.643,7.643c16.826,21.411 30.58,41.282 30.58,70.336c0,6.117 0,13.768 1.526,19.878c1.533,7.643 0,13.761 0,21.404c-1.526,3.059 -1.526,6.117 -1.526,9.176c-1.533,10.709 -3.059,21.404 -7.65,32.106c-1.526,3.059 -1.526,6.117 -3.059,9.176c-4.577,7.65 -6.103,13.768 -7.636,19.878c-1.526,1.526 -3.059,4.584 -4.584,6.11c-1.533,3.059 -3.059,6.117 -3.059,9.176c-1.533,1.533 -3.059,4.592 -4.592,6.117c-3.059,4.592 -6.117,7.65 -7.643,12.235c-4.592,9.176 -10.709,15.293 -16.819,22.929c-1.533,1.533 -3.059,3.059 -3.059,3.059c-3.052,3.059 -4.584,4.584 -6.11,7.643c-3.059,4.592 -6.117,7.65 -9.176,10.709c-4.592,3.059 -7.65,6.117 -10.709,10.702c-6.11,4.592 -13.761,9.176 -19.878,15.286c-1.526,3.059 -4.584,4.584 -7.636,6.117c-1.533,0 -3.059,1.526 -4.592,3.059c-10.702,9.176 -22.937,18.352 -35.171,25.995c-1.526,1.526 -3.059,1.526 -4.584,1.526c-3.052,1.533 -4.577,3.059 -6.11,4.592c-4.584,4.577 -9.176,7.636 -15.293,9.169c-3.059,3.059 -10.702,7.643 -13.761,7.643c-4.584,1.533 -7.643,4.592 -10.702,6.117c-4.592,1.533 -7.643,4.592 -12.228,6.117c-4.592,1.526 -7.65,4.584 -10.709,6.117c-3.052,1.526 -6.11,3.059 -9.169,4.584c-3.059,0 -4.592,1.533 -6.117,3.059c-3.059,1.533 -6.117,3.059 -9.176,4.592c-6.11,1.526 -10.702,3.059 -15.286,6.11c-1.526,0 -3.059,1.526 -4.584,1.526c-10.709,3.059 -22.944,7.643 -32.12,12.235c-6.103,3.059 -10.695,4.584 -16.812,4.584c-7.643,3.059 -13.761,4.592 -19.878,7.65c-6.117,1.526 -10.702,3.059 -16.812,4.584c-3.059,0 -4.592,0 -7.65,1.533c-3.059,1.526 -6.117,3.059 -10.702,3.059c-4.584,1.526 -9.176,1.526 -13.761,3.059c-6.117,1.526 -10.709,1.526 -15.293,3.059c-6.11,1.526 -12.228,1.526 -19.871,3.059c-4.592,3.044 -10.709,4.577 -16.826,3.044c0,0 -1.526,1.533 -3.059,1.533c-3.059,1.526 -6.11,3.059 -9.162,1.526c-4.592,0 -9.176,1.533 -13.768,1.533c-3.059,1.526 -15.293,3.059 -18.345,3.059c-3.059,1.526 -7.65,1.526 -12.235,1.526c-3.059,0 -6.11,0 -9.169,1.533l-13.761,0c-4.592,0 -10.709,0 -15.293,1.526l-33.638,0c-4.584,1.533 -9.176,1.533 -13.761,1.533c-4.592,0 -9.176,0 -13.761,-1.533c-6.11,-1.526 -12.228,-1.526 -18.345,-1.526c-18.352,0 -35.164,-1.533 -51.983,-6.117c-1.533,-1.533 -4.592,-1.533 -7.65,-1.533c-7.643,0 -16.819,-1.526 -24.455,-6.103c-1.533,0 -3.059,-1.533 -4.592,-1.533c-47.399,-6.117 -90.213,-55.042 -97.857,-100.915c-1.526,-1.526 -1.526,-3.052 -1.526,-4.584c-1.526,-6.117 -3.059,-10.702 0,-15.293" style="fill:#111;fill-rule:nonzero;"/><path d="M3395.261,2077.527c-1.526,-15.293 0,-30.587 10.702,-42.814c3.059,-6.11 9.169,-9.169 15.286,-12.228c7.65,-3.059 15.293,-7.65 21.411,-10.709c9.176,-3.059 15.293,-9.176 19.871,-16.819c1.526,-4.584 4.584,-9.176 6.117,-13.753c6.117,-27.521 29.054,-36.697 55.042,-39.756c9.176,0 18.352,3.059 27.528,6.117c9.169,1.526 16.812,4.584 18.345,16.819c0,6.11 -3.059,9.169 -7.65,12.228c-6.11,1.533 -9.169,1.533 -15.286,1.533c-4.584,0 -9.176,0 -13.761,-1.533c-4.584,0 -7.643,0 -10.702,1.533c-4.592,1.526 -7.65,3.059 -9.176,9.169c-1.533,3.059 -1.533,6.117 1.526,9.176c4.592,4.584 7.65,9.169 13.768,16.819c4.584,6.117 4.584,12.235 -1.533,18.352c-3.059,1.519 -6.117,4.577 -9.176,4.577c-3.059,0 -4.584,1.526 -6.117,1.526c-7.636,0 -19.871,1.533 -29.047,3.059l-4.584,0c-4.592,1.533 -7.65,1.533 -12.235,1.533c-4.584,1.526 -7.636,3.059 -12.228,4.584c-1.526,0 -3.059,1.533 -4.584,3.059c-4.592,0 -9.176,4.592 -12.235,9.176c-4.592,3.059 -4.592,9.176 -1.533,13.768c6.117,13.753 24.469,16.812 38.223,16.812c1.533,1.526 3.059,1.526 4.592,1.526c15.293,0 33.631,-6.117 48.925,-9.176c4.592,-1.519 9.176,-3.052 13.761,-3.052c9.176,-3.052 18.345,-4.584 25.995,-6.11c18.345,-4.592 36.697,-9.176 55.042,-13.768c1.526,-1.526 3.059,-1.526 4.584,-1.526c4.592,-1.533 9.176,-3.059 12.235,-3.059c10.702,-3.059 21.404,-6.117 32.106,-9.176c7.65,-3.059 16.819,-6.117 24.469,-9.176c12.228,-3.059 24.455,-7.636 36.69,-10.695c4.592,-1.533 10.709,-4.592 15.293,-6.117c9.169,-3.059 19.871,-6.117 29.047,-10.709c10.709,-3.059 19.878,-7.643 30.58,-10.702c10.702,-3.059 21.404,-9.176 32.113,-12.235c1.526,0 3.059,-1.526 6.117,-1.526c6.117,-3.052 12.228,-3.052 19.871,-4.584l3.059,0c9.176,0 15.293,9.169 13.761,16.819c-3.059,10.702 -21.411,19.878 -30.573,22.937c-12.235,3.059 -22.944,7.643 -35.171,12.235c-18.345,6.103 -35.164,12.221 -51.991,16.812c-7.643,3.059 -13.753,6.117 -19.871,7.643c-13.761,4.592 -25.995,10.709 -39.756,13.768c-6.11,1.526 -12.228,3.059 -18.345,6.117l-6.117,0c-1.526,0 -3.059,3.052 -4.584,4.584c-4.592,0 -9.176,3.052 -13.768,3.052c-12.228,4.584 -24.455,7.643 -36.69,12.235c-36.697,10.702 -73.387,19.878 -111.617,22.937c-1.533,1.526 -3.059,1.526 -4.592,1.526c-4.577,1.533 -9.162,1.533 -13.753,1.533c-9.176,1.526 -18.352,1.526 -27.528,3.059c-33.631,-3.059 -67.27,-9.176 -71.854,-47.399" style="fill:#111;fill-rule:nonzero;"/><path d="M3805.012,2103.516c-1.526,-3.059 -1.526,-6.117 -1.526,-9.176l0,-10.702c0,-6.11 1.526,-10.702 4.584,-13.761c1.526,-3.052 1.526,-4.584 3.059,-7.643c3.059,-6.117 7.643,-12.235 10.702,-18.352c0,0 4.592,-7.643 6.117,-9.176c1.533,-3.044 3.059,-6.103 4.592,-9.162c3.059,-3.059 6.117,-7.65 7.643,-12.235c3.059,-4.592 6.117,-9.176 9.176,-13.768c3.059,-4.584 6.11,-9.169 9.169,-15.286c3.059,-3.052 3.059,-7.643 7.643,-9.169c1.533,-1.533 3.059,-3.059 4.592,-4.592c3.059,-3.059 6.117,-3.059 9.169,-3.059l9.176,0c3.059,1.533 6.117,6.117 6.117,9.176c1.533,7.643 0,15.286 -3.059,21.404c-4.584,9.176 -10.702,18.352 -16.819,25.995c-3.059,6.117 -6.117,10.695 -9.176,15.286c-1.526,3.059 -9.176,16.819 -10.702,19.878c1.526,6.117 4.584,9.176 7.643,10.702c3.059,1.533 4.592,0 6.117,-1.526c10.702,-6.117 19.878,-12.235 29.054,-18.352c1.533,0 3.052,-1.526 4.584,-3.059c4.584,-3.059 10.702,-6.117 16.819,-9.176c3.059,-1.526 4.584,-4.584 7.643,-6.103c4.592,-3.059 10.709,-6.117 15.293,-9.176c4.592,-3.059 9.169,-7.65 15.286,-10.709c1.526,-1.526 3.059,-1.526 3.059,-3.059c6.117,-1.526 12.235,-6.117 18.352,-9.176c1.526,-1.526 4.584,-3.059 6.117,-4.584c7.643,-3.059 13.753,-7.643 19.871,-10.702c9.176,-4.584 16.819,-9.169 24.462,-13.761c13.768,-6.117 24.462,-12.228 41.282,-13.753l7.65,0c1.526,0 4.584,-1.533 6.117,0c6.117,-1.533 15.279,1.526 19.871,3.052c4.584,1.526 6.117,4.584 9.176,7.643c1.526,1.533 1.526,1.533 3.059,3.059c3.059,1.533 3.059,4.592 4.584,7.65c0,3.059 1.533,6.11 1.533,9.169c1.526,3.059 1.526,6.117 0,9.169l0,4.592c-1.533,1.526 -1.533,4.584 -1.533,6.117c-4.584,9.176 -9.176,18.352 -13.761,27.514c-4.592,9.176 -9.176,16.826 -12.228,24.469c-1.526,3.059 -3.059,6.117 -4.584,9.176c0,4.584 0,7.643 3.059,10.702c1.526,3.052 4.577,4.584 9.162,4.584c4.592,1.526 9.176,0 13.768,-1.533c0,-1.519 1.526,-1.519 3.059,-1.519c19.878,-6.117 39.749,-15.293 58.101,-22.937c1.526,0 3.059,0 4.584,-1.533c1.533,0 4.592,-1.526 6.117,-3.059c4.592,-1.526 7.643,-1.526 10.702,-3.059c3.052,0 4.584,-1.526 6.11,-1.526c4.592,-1.533 7.65,-4.592 12.235,-6.117c6.117,-1.533 12.235,-4.592 18.352,-6.117c3.059,-1.533 4.592,-1.533 7.643,-3.059c1.526,-1.519 4.584,0 6.11,-1.519c1.533,-3.059 4.592,-3.059 6.117,-4.592c4.592,-1.526 9.176,-1.526 12.235,-3.059c3.059,-1.526 4.592,-1.526 6.117,-3.059c1.526,0 4.584,-1.526 6.117,-1.526c3.059,-1.533 6.117,-1.533 9.176,-3.059c1.526,-1.533 4.577,-3.059 7.636,-3.059c1.533,-1.533 4.592,-3.059 7.65,-3.059c4.584,-1.533 9.169,-4.592 13.761,-6.117c3.059,-1.533 7.643,-3.059 12.235,-4.592c10.702,-3.059 19.871,-7.643 30.573,-12.228c6.117,-1.533 12.235,-3.059 16.826,-3.059c4.584,0 9.169,0 12.221,1.526c7.65,1.533 10.709,9.176 6.117,15.293c-6.117,9.176 -12.221,15.293 -22.929,18.352c-9.176,4.584 -18.352,9.176 -27.528,12.235c-1.526,1.519 -3.059,1.519 -4.577,3.044c-4.584,1.533 -10.702,3.059 -16.819,6.117c0,0 -1.533,1.533 -3.059,1.533c-4.592,1.526 -7.65,3.059 -10.709,4.584c-3.052,0 -4.584,1.533 -6.11,1.533c-4.592,1.526 -7.65,3.059 -12.235,4.584c-4.584,3.059 -9.169,4.592 -13.761,6.117c-16.819,6.117 -35.164,12.235 -51.983,18.352c-7.643,3.059 -15.293,6.11 -22.937,7.636c-3.059,1.533 -7.643,3.059 -10.695,4.592c-6.117,3.059 -12.235,4.584 -18.352,7.643c-6.117,1.533 -10.702,3.059 -16.819,6.117c-1.533,0 -4.592,1.526 -6.117,1.526c-3.059,1.533 -4.592,1.533 -6.11,1.533c-3.059,3.059 -7.65,4.584 -10.709,4.584c-1.526,1.533 -4.584,1.533 -6.11,3.059c-6.117,1.533 -12.235,4.592 -18.352,6.117c-4.592,0 -9.176,1.533 -13.768,3.059c-6.103,1.533 -10.695,3.059 -16.812,1.533c-12.235,0 -30.58,-7.65 -33.631,-22.937c0,-3.059 -1.533,-7.65 -1.533,-12.235c0,-4.592 1.533,-10.702 3.059,-15.286c1.526,-7.643 6.11,-13.761 9.169,-19.878c0,-1.533 1.526,-3.059 1.526,-4.592c3.059,-4.584 4.592,-10.702 7.65,-15.293c3.059,-4.577 4.584,-9.162 7.643,-12.221c1.533,-3.059 1.533,-4.592 3.059,-7.65c0,-1.526 1.533,-3.059 1.533,-4.584c-1.533,-9.176 -4.592,-15.293 -13.768,-15.293c-3.059,0 -6.117,1.526 -9.169,1.526c-3.059,3.059 -7.643,4.592 -10.702,7.65c-6.117,3.059 -12.235,6.117 -16.819,9.176c-6.117,1.526 -33.638,18.352 -36.697,21.397c-1.526,1.533 -1.526,1.533 -3.052,1.533c-1.533,1.526 -1.533,1.526 -6.117,4.584c-3.059,1.533 -6.117,3.059 -9.176,4.592c-6.117,3.059 -10.709,7.643 -15.293,10.702c-4.592,3.059 -10.695,6.117 -15.286,9.176c-3.059,1.533 -4.584,3.059 -6.117,4.584c-10.702,7.65 -21.411,13.761 -32.113,19.878c-3.059,3.059 -4.577,4.584 -6.11,4.584c-4.584,3.059 -9.176,6.117 -13.761,9.176c-9.176,4.584 -16.819,9.176 -24.469,13.761c-6.117,1.533 -10.695,3.059 -15.279,4.592c-1.533,1.526 -10.709,3.059 -13.768,3.059c-13.761,0 -21.411,-10.709 -25.995,-21.411" style="fill:#111;fill-rule:nonzero;"/><path d="M4327.917,2063.764c0,-9.176 0,-16.819 3.059,-24.469c1.526,-4.584 3.059,-9.169 4.584,-13.753c0,-1.526 1.533,-3.059 3.059,-4.584c3.059,-4.592 7.65,-10.709 12.235,-16.826c0,-1.526 1.533,-1.526 1.533,-3.059c3.059,0 4.584,-3.059 7.643,-6.117c1.533,-1.526 3.052,-3.059 4.577,-4.584c1.533,-1.533 3.059,-3.059 4.592,-3.059c4.584,-4.577 7.643,-6.11 9.176,-7.636l3.059,0c1.526,-3.059 1.526,-3.059 4.584,-3.059c9.176,-6.117 16.826,-10.709 27.521,-13.768c4.584,-1.526 9.176,-1.526 13.761,-3.059c3.059,-1.526 6.117,-3.052 9.176,-3.052l9.176,0c4.584,-1.526 9.176,-1.526 13.761,-1.526l4.584,0c4.584,1.526 9.169,1.526 12.228,1.526c12.235,0 29.061,4.584 33.638,16.819c1.526,6.117 1.526,12.228 -3.052,16.812c-1.526,1.526 -4.584,4.584 -7.643,4.584l-7.65,0c-1.526,0 -3.059,0 -6.117,-1.526c-3.059,0 -6.117,-1.533 -9.176,-3.059c-1.526,0 -15.286,-3.059 -16.812,-3.059c-6.117,1.526 -12.235,1.526 -18.352,4.584c-1.526,0 -3.059,1.533 -4.584,1.533c-6.117,1.526 -12.235,4.584 -18.352,6.117c-25.988,10.702 -50.458,32.113 -55.042,61.159c-1.519,4.584 0,9.176 3.059,13.761c7.643,10.702 13.761,15.286 29.054,15.286c15.286,0 36.697,-10.695 48.925,-16.812c25.995,-15.293 47.399,-30.587 68.803,-53.516c3.059,-4.584 7.643,-10.702 12.235,-15.293c3.059,-3.059 4.584,-6.117 7.643,-10.702c3.059,-4.592 7.65,-9.176 10.709,-12.228c0,-1.526 1.526,-3.059 1.526,-3.059c4.584,-6.117 7.643,-10.702 12.235,-15.293c1.519,-3.059 3.052,-6.11 4.577,-9.169c3.059,-3.059 6.117,-9.176 9.176,-13.761c1.533,-1.533 3.059,-3.059 3.059,-4.592c4.592,-6.11 7.643,-12.228 12.235,-18.345c1.526,-4.584 4.584,-7.643 7.643,-10.702c3.059,-4.584 6.117,-10.702 9.176,-15.293c4.584,-6.11 7.643,-12.228 12.228,-18.345c3.059,-4.584 6.117,-9.176 9.176,-12.235c1.526,-3.052 3.059,-6.11 4.584,-9.169c3.059,-4.584 7.65,-9.176 10.709,-15.286c1.526,-3.059 4.584,-6.117 6.117,-10.709c4.584,-3.059 6.117,-7.643 9.176,-12.235c3.044,-4.577 6.103,-9.169 9.162,-13.753c4.592,-7.65 9.176,-13.761 13.768,-19.878c1.526,-1.533 3.059,-4.584 4.584,-6.117c0,-1.526 0,-3.059 1.533,-1.526l1.526,0c-1.526,-1.533 -1.526,-3.059 0,-3.059c4.584,-7.643 9.176,-13.761 12.235,-21.411c6.11,-7.643 13.753,-15.286 21.404,-19.871c1.526,0 1.526,-1.533 3.059,-1.533c1.526,-1.526 3.052,-1.526 6.11,-1.526c4.592,0 7.65,1.526 9.176,4.584c3.059,4.592 4.592,7.65 4.592,13.761c0,1.526 -1.533,3.059 -1.533,4.584c-6.117,12.235 -12.235,21.411 -19.878,32.113c-4.584,7.643 -7.643,10.702 -10.702,15.286c-12.228,18.345 -24.462,36.697 -36.697,55.042c-3.059,3.059 -4.584,3.059 -4.584,4.592c0,1.526 -1.533,4.584 -3.059,6.11c-6.117,9.176 -12.228,16.826 -16.812,25.995c-9.176,12.235 -15.293,24.462 -22.944,35.164c-4.584,6.117 -7.643,13.761 -12.235,19.878c-3.052,6.117 -4.584,9.176 -7.643,12.235c-1.519,1.533 -1.519,4.584 -3.052,6.11c-1.526,1.533 -3.059,4.592 -4.584,6.117c-1.533,3.059 -3.059,4.592 -4.592,7.65c-3.059,6.117 -6.117,10.695 -9.176,16.812c-1.526,1.526 -3.059,4.584 -4.584,7.643c-7.643,10.709 -18.352,29.061 -19.878,41.282c-3.052,7.65 -6.11,15.293 -7.643,22.944c-1.526,0 -1.526,1.526 -3.059,3.052c1.533,3.059 1.533,4.592 1.533,6.117c0,12.228 9.169,19.878 19.871,19.878c27.528,0 96.324,-24.462 122.319,-35.164c6.117,-1.533 13.761,-4.592 19.878,-7.65c1.526,0 3.059,-1.526 4.584,-3.059c6.117,-1.526 12.235,-4.584 18.352,-7.643c4.584,-1.533 7.643,-3.059 10.702,-4.592c9.169,-3.052 16.812,-7.636 25.988,-10.695c6.117,-3.059 10.709,-4.584 15.293,-6.117c9.176,-6.117 36.697,-19.878 47.399,-21.411c1.526,-1.526 3.059,-1.526 4.584,-3.059c3.059,-3.059 7.65,-3.059 10.709,-4.584c1.519,0 4.577,-1.526 6.11,-1.526c3.059,-1.533 9.169,-3.052 12.228,-3.052c9.176,0 18.352,4.577 18.352,15.279c-1.526,9.176 -18.352,19.885 -25.995,24.469c-3.059,1.533 -7.643,4.592 -12.228,6.117c-3.059,1.526 -7.643,3.059 -10.702,4.577c-1.533,1.533 -4.584,1.533 -6.117,3.059c-7.643,3.059 -15.293,6.117 -22.937,10.709c-3.059,1.526 -7.65,3.059 -10.702,4.584c-4.584,1.533 -9.169,4.592 -15.286,6.117c0,0 -22.944,10.702 -24.469,10.702c-4.584,1.533 -9.169,3.059 -15.286,6.117c-1.526,0 -3.059,1.533 -6.117,1.533c-3.059,1.526 -4.584,3.059 -7.643,4.584c-3.059,1.526 -6.117,1.526 -7.643,3.052l-3.059,0c-9.176,4.592 -18.345,7.65 -27.521,10.709c-1.533,0 -3.059,1.526 -4.584,1.526c-6.117,3.059 -12.235,6.117 -18.352,7.643c-6.117,0 -9.176,3.059 -13.753,4.592c-7.65,1.526 -15.293,4.584 -22.944,6.117c-4.584,1.526 -10.702,3.059 -15.293,4.584c-4.584,1.533 -9.169,1.533 -13.753,3.059c-4.584,0 -7.643,0 -12.235,1.533c-3.059,0 -6.117,1.526 -9.176,0c-4.584,0 -6.11,1.526 -9.169,1.526c-18.345,0 -42.814,-1.526 -51.991,-19.878c-1.526,-3.059 -3.059,-6.117 -4.584,-7.643c-3.059,-6.117 -7.65,-12.235 -15.286,-12.235c-1.526,0 -3.059,0 -6.117,1.526c-4.584,3.059 -10.702,4.592 -15.293,7.65c-1.526,1.526 -3.059,3.059 -4.584,4.584c-1.533,1.526 -4.584,1.526 -7.643,3.059c-6.117,3.059 -10.702,6.117 -15.286,9.176c-7.65,6.117 -33.646,12.235 -44.34,13.761c-4.584,1.533 -7.643,1.533 -12.235,1.533c-15.293,0 -33.631,0 -45.866,-12.235c0,-1.533 -1.533,-1.533 -1.533,-3.059c-9.176,-4.592 -16.819,-24.469 -18.352,-33.638c-1.526,-4.584 -1.526,-9.176 -1.526,-13.761" style="fill:#111;fill-rule:nonzero;"/><path d="M3456.383,2287.89c0,-3.584 -0.66,-6.983 -1.966,-10.212c-1.313,-3.229 -3.186,-6.103 -5.642,-8.63c-2.392,-2.484 -5.152,-4.393 -8.303,-5.734c-3.144,-1.334 -6.458,-2.008 -9.942,-2.008c-3.492,0 -6.813,0.667 -9.957,1.987c-3.151,1.327 -5.947,3.243 -8.395,5.755c-2.455,2.491 -4.336,5.351 -5.621,8.573c-1.292,3.229 -1.937,6.65 -1.937,10.269c0,3.577 0.646,6.969 1.937,10.17c1.285,3.186 3.165,6.046 5.621,8.566c2.448,2.519 5.237,4.443 8.374,5.763c3.13,1.327 6.451,1.987 9.978,1.987c3.449,0 6.735,-0.66 9.85,-1.987c3.108,-1.32 5.912,-3.243 8.395,-5.763c2.455,-2.519 4.329,-5.386 5.642,-8.587c1.306,-3.215 1.966,-6.6 1.966,-10.148m12.001,0c0,5.039 -0.937,9.793 -2.824,14.286c-1.895,4.485 -4.641,8.488 -8.261,12.008c-3.648,3.513 -7.764,6.21 -12.348,8.076c-4.584,1.881 -9.396,2.81 -14.421,2.81c-5.103,0 -9.971,-0.937 -14.605,-2.832c-4.634,-1.888 -8.722,-4.57 -12.27,-8.055c-3.619,-3.52 -6.359,-7.508 -8.239,-11.965c-1.866,-4.457 -2.803,-9.226 -2.803,-14.328c0,-5.067 0.937,-9.843 2.803,-14.328c1.881,-4.485 4.62,-8.509 8.239,-12.064c3.612,-3.513 7.714,-6.195 12.292,-8.033c4.592,-1.838 9.446,-2.761 14.584,-2.761c5.095,0 9.921,0.923 14.499,2.761c4.563,1.838 8.651,4.521 12.27,8.033c3.619,3.584 6.366,7.629 8.261,12.135c1.888,4.499 2.824,9.247 2.824,14.257" style="fill:#111;fill-rule:nonzero;"/><path d="M3514.508,2323.187l0,-73.699l45.029,43.34c1.228,1.228 2.47,2.541 3.726,3.917c1.256,1.391 2.583,2.959 3.974,4.698l0,-49.145l10.652,0l0,73.65l-45.951,-44.113c-1.228,-1.192 -2.406,-2.448 -3.555,-3.768c-1.15,-1.327 -2.235,-2.718 -3.272,-4.173l0,49.294l-10.602,0Z" style="fill:#111;fill-rule:nonzero;"/><path d="M3699.814,2313.554l3.974,0c4.031,0 7.047,-0.163 9.048,-0.49c2.008,-0.319 3.591,-0.887 4.748,-1.689c1.419,-0.944 2.519,-2.2 3.3,-3.775c0.766,-1.583 1.157,-3.328 1.157,-5.23c0,-2.257 -0.468,-4.23 -1.405,-5.912c-0.937,-1.675 -2.278,-2.988 -4.017,-3.917c-1.1,-0.554 -2.349,-0.951 -3.754,-1.214c-1.405,-0.263 -3.272,-0.383 -5.592,-0.383l-7.459,0l0,22.61Zm0,-31.332l4.407,0c5.493,0 9.375,-0.752 11.646,-2.25c2.278,-1.497 3.414,-4.031 3.414,-7.572c0,-3.875 -1.043,-6.593 -3.151,-8.161c-2.094,-1.568 -6.068,-2.349 -11.908,-2.349l-4.407,0l0,20.332Zm-11.277,40.962l0,-70.882l17.87,0c5.095,0 8.864,0.277 11.298,0.823c2.441,0.546 4.514,1.448 6.224,2.711c2.193,1.618 3.903,3.733 5.11,6.344c1.214,2.619 1.81,5.507 1.81,8.665c0,3.783 -0.866,6.933 -2.604,9.467c-1.753,2.534 -4.279,4.301 -7.608,5.301c4.137,0.646 7.388,2.526 9.758,5.635c2.37,3.123 3.563,7.054 3.563,11.795c0,2.874 -0.504,5.606 -1.512,8.183c-1.001,2.583 -2.42,4.783 -4.258,6.593c-1.93,1.959 -4.343,3.35 -7.21,4.159c-2.874,0.809 -7.7,1.206 -14.477,1.206l-17.962,0Z" style="fill:#111;fill-rule:nonzero;"/><path d="M3779.947,2323.187l0,-70.889l11.518,0l0,60.57l25.768,0l0,10.319l-37.286,0Z" style="fill:#111;fill-rule:nonzero;"/><path d="M3857.703,2252.3l11.383,0l0,43.042c0,6.401 1.476,11.192 4.428,14.406c2.959,3.215 7.366,4.826 13.242,4.826c5.848,0 10.241,-1.611 13.2,-4.826c2.945,-3.215 4.421,-8.005 4.421,-14.406l0,-43.042l11.525,0l0,44.113c0,9.588 -2.42,16.762 -7.26,21.517c-4.84,4.769 -12.135,7.146 -21.886,7.146c-9.751,0 -17.032,-2.37 -21.837,-7.125c-4.812,-4.741 -7.217,-11.922 -7.217,-21.539l0,-44.113Z" style="fill:#111;fill-rule:nonzero;"/><path d="M3965.416,2323.187l0,-70.889l39.557,0l0,9.779l-28.039,0l0,17.77l28.039,0l0,10.127l-28.039,0l0,22.894l28.039,0l0,10.319l-39.557,0Z" style="fill:#111;fill-rule:nonzero;"/><path d="M4063.58,2313.554l3.974,0c4.031,0 7.047,-0.163 9.048,-0.49c2.008,-0.319 3.591,-0.887 4.748,-1.689c1.419,-0.944 2.519,-2.2 3.3,-3.775c0.766,-1.583 1.157,-3.328 1.157,-5.23c0,-2.257 -0.468,-4.23 -1.405,-5.912c-0.937,-1.675 -2.278,-2.988 -4.017,-3.917c-1.1,-0.554 -2.349,-0.951 -3.754,-1.214c-1.405,-0.263 -3.272,-0.383 -5.592,-0.383l-7.459,0l0,22.61Zm0,-31.332l4.407,0c5.493,0 9.375,-0.752 11.646,-2.25c2.271,-1.497 3.414,-4.031 3.414,-7.572c0,-3.875 -1.043,-6.593 -3.151,-8.161c-2.094,-1.568 -6.068,-2.349 -11.908,-2.349l-4.407,0l0,20.332Zm-11.277,40.962l0,-70.882l17.87,0c5.095,0 8.864,0.277 11.298,0.823c2.441,0.546 4.514,1.448 6.224,2.711c2.193,1.618 3.903,3.733 5.11,6.344c1.214,2.619 1.81,5.507 1.81,8.665c0,3.783 -0.866,6.933 -2.604,9.467c-1.753,2.534 -4.279,4.301 -7.608,5.301c4.137,0.646 7.388,2.526 9.758,5.635c2.37,3.123 3.563,7.054 3.563,11.795c0,2.874 -0.504,5.606 -1.512,8.183c-1.001,2.583 -2.42,4.783 -4.258,6.593c-1.93,1.959 -4.343,3.35 -7.21,4.159c-2.874,0.809 -7.7,1.206 -14.477,1.206l-17.962,0Z" style="fill:#111;fill-rule:nonzero;"/><path d="M4203.119,2287.89c0,-3.584 -0.66,-6.983 -1.966,-10.212c-1.313,-3.229 -3.186,-6.103 -5.642,-8.63c-2.392,-2.484 -5.152,-4.393 -8.303,-5.734c-3.144,-1.334 -6.458,-2.008 -9.942,-2.008c-3.492,0 -6.813,0.667 -9.957,1.987c-3.151,1.327 -5.947,3.243 -8.395,5.755c-2.455,2.491 -4.336,5.351 -5.621,8.573c-1.292,3.229 -1.937,6.65 -1.937,10.269c0,3.577 0.646,6.969 1.937,10.17c1.285,3.186 3.165,6.046 5.621,8.566c2.448,2.519 5.237,4.443 8.374,5.763c3.13,1.327 6.451,1.987 9.978,1.987c3.449,0 6.735,-0.66 9.85,-1.987c3.108,-1.32 5.912,-3.243 8.395,-5.763c2.455,-2.519 4.329,-5.386 5.642,-8.587c1.306,-3.215 1.966,-6.6 1.966,-10.148m12.001,0c0,5.039 -0.937,9.793 -2.824,14.286c-1.895,4.485 -4.641,8.488 -8.261,12.008c-3.648,3.513 -7.764,6.21 -12.348,8.076c-4.584,1.881 -9.396,2.81 -14.421,2.81c-5.103,0 -9.971,-0.937 -14.605,-2.832c-4.634,-1.888 -8.722,-4.57 -12.27,-8.055c-3.619,-3.52 -6.359,-7.508 -8.239,-11.965c-1.866,-4.457 -2.803,-9.226 -2.803,-14.328c0,-5.067 0.937,-9.843 2.803,-14.328c1.881,-4.485 4.62,-8.509 8.239,-12.064c3.612,-3.513 7.714,-6.195 12.292,-8.033c4.592,-1.838 9.446,-2.761 14.584,-2.761c5.095,0 9.921,0.923 14.499,2.761c4.563,1.838 8.651,4.521 12.27,8.033c3.619,3.584 6.366,7.629 8.261,12.135c1.888,4.499 2.824,9.247 2.824,14.257" style="fill:#111;fill-rule:nonzero;"/><path d="M4261.245,2323.187l0,-73.699l45.029,43.34c1.228,1.228 2.47,2.541 3.726,3.917c1.256,1.391 2.583,2.959 3.974,4.698l0,-49.145l10.652,0l0,73.65l-45.951,-44.113c-1.228,-1.192 -2.406,-2.448 -3.555,-3.768c-1.15,-1.327 -2.235,-2.718 -3.272,-4.173l0,49.294l-10.602,0Z" style="fill:#111;fill-rule:nonzero;"/><path d="M4374.492,2323.187l0,-73.699l45.029,43.34c1.228,1.228 2.47,2.541 3.726,3.917c1.256,1.391 2.583,2.959 3.974,4.698l0,-49.145l10.652,0l0,73.65l-45.951,-44.113c-1.228,-1.192 -2.406,-2.448 -3.555,-3.768c-1.15,-1.327 -2.235,-2.718 -3.272,-4.173l0,49.294l-10.602,0Z" style="fill:#111;fill-rule:nonzero;"/><path d="M4487.731,2323.187l0,-70.889l39.557,0l0,9.779l-28.039,0l0,17.77l28.039,0l0,10.127l-28.039,0l0,22.894l28.039,0l0,10.319l-39.557,0Z" style="fill:#111;fill-rule:nonzero;"/><path d="M4597.811,2262.08l0,61.11l-11.518,0l0,-61.11l-18.842,0l0,-9.779l49.102,0l0,9.779l-18.742,0Z" style="fill:#111;fill-rule:nonzero;"/></g></svg>