<?xml version="1.0" encoding="UTF-8" standalone="no"?><!DOCTYPE svg PUBLIC "-//W3C//DTD SVG 1.1//EN" "http://www.w3.org/Graphics/SVG/1.1/DTD/svg11.dtd"><svg width="100%" height="100%" viewBox="0 0 5760 3915" version="1.1" xmlns="http://www.w3.org/2000/svg" xmlns:xlink="http://www.w3.org/1999/xlink" xml:space="preserve" xmlns:serif="http://www.serif.com/" style="fill-rule:evenodd;clip-rule:evenodd;stroke-linejoin:round;stroke-miterlimit:2;"><g id="Atrio"><g><path d="M936.561,2087.289c0,15.361 -19.04,27.338 -43.926,27.338c-28.252,0 -49.145,-17.814 -49.145,-41.464l0,-109.04l-18.423,0l0,-6.141l18.423,0l0,-33.479l46.996,-10.133l0,43.613l39.324,0l0,6.141l-39.324,0l0,116.721c0,12.899 8.289,22.415 19.667,22.415c11.36,0 19.962,-6.75 19.962,-15.97l6.445,0Z" style="fill:#111;fill-rule:nonzero;"/><path d="M1131.148,2005.59l0,105.97l-46.996,0l0,-116.721c0,-14.439 -9.829,-25.494 -23.955,-25.494c-14.43,0 -28.565,10.751 -35.332,26.721l0,115.494l-46.988,0l0,-216.237l46.988,-7.985l0,96.445c10.768,-17.196 31.644,-28.878 53.763,-28.878c30.705,0 52.52,21.815 52.52,50.684" style="fill:#111;fill-rule:nonzero;"/><path d="M1228.654,2025.247l65.419,0c-0.922,-39.925 -12.595,-64.193 -31.635,-64.193c-20.275,0 -32.87,26.721 -33.784,64.193m97.976,56.521l7.063,0c-9.525,19.649 -35.323,32.862 -65.115,32.862c-51.606,0 -88.156,-34.401 -88.156,-80.162c0,-45.152 35.941,-79.554 81.398,-79.554c44.543,0 76.474,32.862 76.474,76.483l-109.641,0c0.609,49.754 19.353,74.63 52.52,74.63c19.049,0 36.237,-9.211 45.457,-24.259" style="fill:#111;fill-rule:nonzero;"/><path d="M834.764,2111.2l1067.162,0l-160.238,-369.533l-260.536,597.356l-30.513,0l334.645,-763.048l57.782,0l333.566,763.048l-176.599,0l-89.391,-206.025l-1085.689,0l9.812,-21.798Z" style="fill:#111;fill-rule:nonzero;"/><path d="M2802.846,1597.775l-232.18,0l0,741.25l-166.779,0l0,-741.25l-232.198,0l0,-21.798l631.157,0l0,21.798Z" style="fill:#111;fill-rule:nonzero;"/><path d="M3121,1990.203l118.808,0c93.749,0 154.793,-77.396 154.793,-196.213c0,-118.817 -61.044,-196.213 -154.793,-196.213l-118.808,0l0,392.427Zm500.337,348.823l-179.852,0c-20.719,-13.082 -39.246,-40.333 -50.154,-63.227l-101.369,-219.098c-9.812,-19.623 -26.164,-35.976 -50.154,-44.7l-118.808,0l0,327.025l-166.788,0l0,-763.056l324.851,0c162.421,0 286.683,91.574 286.683,219.107c0,113.372 -98.098,196.213 -234.364,213.653c69.759,11.995 130.812,42.517 156.967,101.377l70.855,146.068c16.353,33.801 40.333,67.594 62.131,82.85" style="fill:#111;fill-rule:nonzero;"/><rect x="3767.161" y="1575.972" width="166.788" height="763.048" style="fill:#111;"/><path d="M4763.911,1957.5c0,-223.465 -94.836,-370.621 -236.556,-370.621c-142.789,0 -236.547,147.156 -236.547,370.621c0,223.465 93.758,370.621 236.547,370.621c141.719,0 236.556,-147.156 236.556,-370.621m-644.23,0c0,-223.465 175.486,-392.427 407.675,-392.427c232.189,0 407.692,168.962 407.692,392.427c0,223.465 -175.503,392.427 -407.692,392.427c-232.189,0 -407.675,-168.962 -407.675,-392.427" style="fill:#111;fill-rule:nonzero;"/></g></g></svg>